<svg xmlns="http://www.w3.org/2000/svg" width="250" height="250"><path d="M78.438 25C72.48 25 66.7 28.496 63.75 33.75l-46.562 82.5c-2.95 5.313-2.95 12.188 0 17.5l46.563 82.5c2.95 5.273 8.73 8.75 14.688 8.75h93.125c5.957 0 11.738-3.496 14.688-8.75l46.563-82.5c2.95-5.312 2.95-12.187 0-17.5l-46.562-82.5c-2.95-5.254-8.73-8.75-14.687-8.75zm0 10h93.125c2.363 0 4.746 1.465 5.938 3.594l46.563 82.5c1.27 2.285 1.23 5.586 0 7.813l-46.562 82.5c-1.172 2.11-3.574 3.594-5.937 3.594H78.438c-2.363 0-4.746-1.465-5.937-3.594l-46.562-82.5c-1.27-2.285-1.23-5.586 0-7.812l46.563-82.5C73.672 36.484 76.074 35 78.438 35zm3.125 40c-1.19.254-2.03 1.836-1.406 2.97L105.47 125l-25.312 46.875c-.723 1.29.332 3.125 1.72 3.125h15.313c.723-.06 1.426-.45 1.72-1.094l25.78-47.97c.137-.254.254-.527.313-.78.06.254.176.527.313.78l25.78 47.97c.332.645.996 1.094 1.72 1.094h15.313c1.367 0 2.44-1.836 1.72-3.125L144.53 125l25.313-47.03c.625-1.23-.39-2.97-1.72-2.97h-15.312c-.723 0-1.348.45-1.72 1.094l-25.78 47.813c-.137.254-.254.488-.312.78-.06-.293-.176-.527-.312-.78l-25.78-47.812c-.332-.586-1.055-1.094-1.72-1.094zm0 0" fill="rgb(20.392157%,59.607843%,85.882353%)"/></svg>