<svg xmlns="http://www.w3.org/2000/svg" height="279" preserveAspectRatio="xMinYMin meet" width="256"><path d="M242.562 40.657c-.824-21.506-19.727-26.016-19.727-26.016l-94.22-13.457c-28.7-3.603-26.924 24.22-26.924 24.22l7.196 227.903c.77 29.925 28.702 25.1 28.702 25.1l98.712-17.07c17.95-3.594 18.838-26.007 18.838-26.007L242.562 40.657c-.824-21.506.917 23.478 0 0zm-22.08 172.26l-73.4 7.604s-21.376 3.26-21.858-22.7c-.352-19.135-4.585-128.738-4.585-128.738s-1.473-20.098 20.524-18.45l76.243 5.76S231.8 59.8 232.44 76.222c.676 17.838 6.9 116.902 6.9 116.902s1.62 16.282-18.848 19.792zM40.796 183.37l-13.56.963s-13.68 1.852-13.994-13.115L11.65 97.58s-.945-11.586 13.124-10.642l14.207.9-.5-26.368-20.163-1.76C-.262 57.652.878 73.258.878 73.258l2.658 128.905c.5 16.782 18.58 14.06 18.58 14.06l19.292-2.065-.6-30.786zM94.727 79c-.065-1.463-.306-2.797-.676-3.992-5.937-.482-20.84-4.362-25.618.685-3.03 3.177-1.778 9.873-1.704 13.68l10.808.6s9.215 1.973 9.614 11.42c.426 10.3.37 68 .37 68s1.037 9.4-12.04 11.4l-6.863.5.093 4.918c.287 16.45 17.783 11.18 28.758 10.114.945-17.45-.732-35.426-1.12-52.884L94.727 79c-.065-1.463.593 13.133 0 0zm5.677 124.08l-19.774 1.908s-18.44 2.65-18.838-18.598l-2.14-104.556s-1.278-16.43 17.644-15.115l18.83 1.463-1.204-37.427-26.303-2.75C43.6 25.17 45.186 47.28 45.186 47.28l3.557 182.947c.676 23.812 25.007 19.987 25.007 19.987l27.998-3.584-1.343-43.55zm40.233-145.53c-3.5-.278-7.752-.046-10.345 2.686-2.74 2.87-2.788 6.946-2.63 10.632l17.116 1.5s12.392 2.788 12.957 16.217l4.12 93.97s1.4 13.346-16.227 16.227l-13.337 1.278c1.77 20.848 28.73 12.05 42.52 10.623l-6.798-151.077-27.378-2.056c-.685-.056 6.937.5 0 0z"/></svg>