<?xml version="1.0" encoding="utf-8"?>
<!-- Generator: Adobe Illustrator 16.0.0, SVG Export Plug-In . SVG Version: 6.00 Build 0)  -->
<!DOCTYPE svg PUBLIC "-//W3C//DTD SVG 1.1//EN" "http://www.w3.org/Graphics/SVG/1.1/DTD/svg11.dtd">
<svg version="1.1" id="Layer_1" xmlns="http://www.w3.org/2000/svg" xmlns:xlink="http://www.w3.org/1999/xlink" x="0px" y="0px"
	 width="70px" height="70px" viewBox="0 0 70 70" enable-background="new 0 0 70 70" xml:space="preserve">
<polygon fill="none" stroke="#0123B4" stroke-miterlimit="10" points="27.785,29.978 29.067,40.02 25.435,40.02 26.289,29.978 "/>
<rect x="51.196" y="9.026" fill="none" stroke="#0123B4" stroke-width="0.5" stroke-miterlimit="10" width="2.479" height="1.42"/>
<rect x="57.045" y="9.026" fill="none" stroke="#0123B4" stroke-width="0.5" stroke-miterlimit="10" width="10.813" height="1.42"/>
<rect x="51.196" y="11.862" fill="none" stroke="#0123B4" stroke-width="0.5" stroke-miterlimit="10" width="2.479" height="0.709"/>
<rect x="57.045" y="11.862" fill="none" stroke="#0123B4" stroke-width="0.5" stroke-miterlimit="10" width="10.813" height="0.709"/>
<polygon fill="none" stroke="#0123B4" stroke-width="0.5" stroke-miterlimit="10" points="57.133,18.598 67.858,18.598 
	67.858,17.89 57.133,17.89 "/>
<rect x="51.196" y="13.369" fill="none" stroke="#0123B4" stroke-width="0.5" stroke-miterlimit="10" width="2.479" height="1.667"/>
<rect x="57.045" y="13.369" fill="none" stroke="#0123B4" stroke-width="0.5" stroke-miterlimit="10" width="10.813" height="1.667"/>
<polygon fill="none" stroke="#0123B4" stroke-width="0.5" stroke-miterlimit="10" points="57.045,16.71 57.133,16.71 57.133,17.535 
	67.858,17.535 67.858,16.703 57.045,16.703 "/>
<rect x="51.196" y="19.369" fill="none" stroke="#0123B4" stroke-width="0.5" stroke-miterlimit="10" width="2.48" height="1.416"/>
<polygon fill="none" stroke="#0123B4" stroke-width="0.5" stroke-miterlimit="10" points="57.133,19.37 57.045,19.37 57.045,20.786 
	67.858,20.786 67.858,19.367 57.133,19.367 "/>
<rect x="57.045" y="22.203" fill="none" stroke="#0123B4" stroke-width="0.5" stroke-miterlimit="10" width="10.813" height="0.71"/>
<rect x="51.196" y="22.203" fill="none" stroke="#0123B4" stroke-width="0.5" stroke-miterlimit="10" width="2.48" height="0.71"/>
<rect x="57.045" y="28.23" fill="none" stroke="#0123B4" stroke-width="0.5" stroke-miterlimit="10" width="10.813" height="0.708"/>
<rect x="51.196" y="28.23" fill="none" stroke="#0123B4" stroke-width="0.5" stroke-miterlimit="10" width="2.48" height="0.708"/>
<rect x="51.196" y="23.71" fill="none" stroke="#0123B4" stroke-width="0.5" stroke-miterlimit="10" width="2.48" height="1.667"/>
<rect x="57.045" y="23.71" fill="none" stroke="#0123B4" stroke-width="0.5" stroke-miterlimit="10" width="10.813" height="1.667"/>
<rect x="51.196" y="27.042" fill="none" stroke="#0123B4" stroke-width="0.5" stroke-miterlimit="10" width="2.48" height="0.834"/>
<rect x="57.045" y="27.042" fill="none" stroke="#0123B4" stroke-width="0.5" stroke-miterlimit="10" width="10.813" height="0.834"/>
<path fill="none" stroke="#0123B4" stroke-miterlimit="10" d="M55.14,16.71H44.134v-4.683c0-1.535,1.243-2.779,2.777-2.779
	c0.509,0,0.979,0.146,1.389,0.386V7.54H20.734c-0.56,0-1.089,0.115-1.578,0.309c-0.869-0.197-1.77-0.309-2.697-0.309
	c-6.727,0-12.18,5.454-12.18,12.181c0,3.284,1.118,6.148,3.42,8.45c1.994,14.916-5.558,30.015-5.558,30.015
	c0,2.363,1.914,4.275,4.274,4.275h11.112c2.359,0,4.272-1.912,4.272-4.275L25.22,28.17c0-0.542,0.213-1.184,0.998-1.184
	c1.353,0,22.081,0,22.081,0v-1.668c-0.411,0.237-0.88,0.386-1.389,0.386c-1.535,0-2.778-1.244-2.778-2.779v-4.974h11.007v11.03
	h0.532V8.819h-0.532L55.14,16.71L55.14,16.71z"/>
</svg>
