<?xml version="1.0" encoding="utf-8"?>
<!-- Generator: Adobe Illustrator 16.0.0, SVG Export Plug-In . SVG Version: 6.00 Build 0)  -->
<!DOCTYPE svg PUBLIC "-//W3C//DTD SVG 1.1//EN" "http://www.w3.org/Graphics/SVG/1.1/DTD/svg11.dtd">
<svg version="1.1" id="Layer_1" xmlns="http://www.w3.org/2000/svg" xmlns:xlink="http://www.w3.org/1999/xlink" x="0px" y="0px"
	 width="70px" height="70px" viewBox="876.5 1215 70 70" enable-background="new 876.5 1215 70 70" xml:space="preserve">
<path fill="none" stroke="#0123B4" stroke-miterlimit="10" d="M877.872,1261.334v4.367c0,3.259,2.65,5.909,5.908,5.909h19.396v7.016
	h-5.441c-1.087,0-1.969,0.881-1.969,1.969s0.881,1.97,1.969,1.97h27.498c1.088,0,1.969-0.882,1.969-1.97s-0.881-1.969-1.969-1.969
	h-5.44v-7.016h19.395c3.257,0,5.907-2.65,5.907-5.909v-4.367H877.872z M910.632,1263.829h1.701c1.087,0,1.969,0.882,1.969,1.969
	c0,1.089-0.882,1.971-1.969,1.971h-1.701c-1.087,0-1.97-0.882-1.97-1.971C908.663,1264.711,909.545,1263.829,910.632,1263.829z"/>
<path fill="none" stroke="#0123B4" stroke-miterlimit="10" d="M945.093,1257.396v-31.605c0-3.257-2.65-5.908-5.907-5.908H883.78
	c-3.257,0-5.908,2.65-5.908,5.908v31.605H945.093L945.093,1257.396z M931.883,1243.896c0,1.088-0.883,1.969-1.97,1.969h-6.021v6.658
	c0,1.088-0.883,1.97-1.97,1.97h-28.87c-1.088,0-1.97-0.882-1.97-1.97v-15.901c0-1.088,0.882-1.97,1.97-1.97h6.021v-6.658
	c0-1.088,0.882-1.969,1.97-1.969h28.87c1.087,0,1.97,0.881,1.97,1.969V1243.896L931.883,1243.896z"/>
<path fill="none" stroke="#0123B4" stroke-miterlimit="10" d="M903.012,1234.653h18.91c1.087,0,1.969,0.882,1.969,1.97v5.304h4.052
	v-11.962h-24.93V1234.653L903.012,1234.653z"/>
<path fill="none" stroke="#0123B4" stroke-miterlimit="10" d="M919.952,1250.557v-11.965h-24.931v11.965H919.952z M908.62,1247.096
	h-0.72c-1.088,0-1.97-0.881-1.97-1.969c0-1.089,0.882-1.97,1.97-1.97h0.72c1.086,0,1.969,0.881,1.969,1.97
	C910.589,1246.215,909.708,1247.096,908.62,1247.096z M915.168,1250.005h-0.72c-1.088,0-1.97-0.881-1.97-1.969
	c0-1.087,0.882-1.969,1.97-1.969h0.72c1.087,0,1.97,0.882,1.97,1.969C917.138,1249.125,916.255,1250.005,915.168,1250.005z
	 M913.007,1239.273h0.719c1.088,0,1.97,0.882,1.97,1.969c0,1.088-0.882,1.969-1.97,1.969h-0.719c-1.087,0-1.97-0.881-1.97-1.969
	C911.037,1240.155,911.919,1239.273,913.007,1239.273z M901.026,1239.737h0.719c1.087,0,1.97,0.883,1.97,1.97
	c0,1.088-0.882,1.969-1.97,1.969h-0.719c-1.088,0-1.969-0.881-1.969-1.969C899.057,1240.62,899.938,1239.737,901.026,1239.737z
	 M900.783,1248.986h-0.72c-1.087,0-1.97-0.881-1.97-1.969c0-1.086,0.882-1.969,1.97-1.969h0.72c1.087,0,1.969,0.883,1.969,1.969
	C902.752,1248.105,901.87,1248.986,900.783,1248.986z"/>
</svg>
