<?xml version="1.0" encoding="utf-8"?>
<!-- Generator: Adobe Illustrator 16.0.0, SVG Export Plug-In . SVG Version: 6.00 Build 0)  -->
<!DOCTYPE svg PUBLIC "-//W3C//DTD SVG 1.1//EN" "http://www.w3.org/Graphics/SVG/1.1/DTD/svg11.dtd">
<svg version="1.1" id="Layer_1" xmlns="http://www.w3.org/2000/svg" xmlns:xlink="http://www.w3.org/1999/xlink" x="0px" y="0px"
	 width="70px" height="70px" viewBox="876.5 1215 70 70" enable-background="new 876.5 1215 70 70" xml:space="preserve">
<path fill="none" stroke="#0123B4" stroke-linejoin="round" stroke-miterlimit="10" d="M889.22,1271.034l0.407-0.57l19.257-36.539
	l0.041-0.387l-8.489-15.945c-0.711-1.335-2.714-0.998-2.947,0.498L889.22,1271.034z"/>
<g>
	<path id="a" fill="none" stroke="#0123B4" stroke-linejoin="round" stroke-miterlimit="10" d="M889.46,1270.599l0.308-0.6
		l19.055-36.157l-8.468-16.01c-0.703-1.321-2.491-0.984-2.721,0.495L889.46,1270.599z"/>
</g>
<path fill="none" stroke="#0123B4" stroke-linejoin="round" stroke-miterlimit="10" d="M915.113,1245.599l6.32-6.473l-6.322-12.069
	c-0.602-1.143-2.276-1.146-2.87,0l-3.378,6.441v0.549L915.113,1245.599L915.113,1245.599z"/>
<g>
	<path id="c" fill="none" stroke="#0123B4" stroke-linejoin="round" stroke-miterlimit="10" d="M915,1245.329l6.145-6.293
		L915,1227.335c-0.584-1.111-2.001-1.227-2.578-0.113l-3.396,6.542l-0.102,0.334L915,1245.329z"/>
</g>
<path fill="none" stroke="#0123B4" stroke-linejoin="round" stroke-miterlimit="10" d="M889.22,1271.034l0.185-0.186l0.67-0.272
	l24.64-24.55l0.313-0.85l-6.146-11.713L889.22,1271.034z"/>
<path fill="none" stroke="#0123B4" stroke-linejoin="round" stroke-miterlimit="10" d="M915.902,1283.415l22.301-12.438
	l-6.369-39.22c-0.199-1.228-1.705-1.712-2.583-0.833l-40.031,40.109l22.173,12.379
	C912.794,1284.195,914.5,1284.195,915.902,1283.415"/>
<path fill="none" stroke="#0123B4" stroke-linejoin="round" stroke-miterlimit="10" d="M938.003,1270.873l-6.32-38.922
	c-0.197-1.218-1.449-1.722-2.32-0.849l-39.895,39.855l21.929,12.258c1.391,0.776,3.084,0.776,4.476,0L938.003,1270.873
	L938.003,1270.873z"/>
<path fill="none" stroke="#0123B4" stroke-linejoin="round" stroke-miterlimit="10" d="M915.902,1283.048
	c-1.402,0.782-3.109,0.782-4.51-0.001l-21.994-12.202l-0.178,0.189l22.172,12.379c1.401,0.782,3.107,0.782,4.51,0.002l22.301-12.438
	l-0.056-0.336L915.902,1283.048L915.902,1283.048z"/>
</svg>
