<?xml version="1.0" encoding="utf-8"?>
<!-- Generator: Adobe Illustrator 16.0.0, SVG Export Plug-In . SVG Version: 6.00 Build 0)  -->
<!DOCTYPE svg PUBLIC "-//W3C//DTD SVG 1.1//EN" "http://www.w3.org/Graphics/SVG/1.1/DTD/svg11.dtd">
<svg version="1.1" id="Layer_1" xmlns="http://www.w3.org/2000/svg" xmlns:xlink="http://www.w3.org/1999/xlink" x="0px" y="0px"
	 width="70px" height="70px" viewBox="876.5 1215 70 70" enable-background="new 876.5 1215 70 70" xml:space="preserve">
<g>
	<path fill="none" stroke="#0123B4" stroke-linecap="round" stroke-linejoin="round" stroke-miterlimit="10" d="M917.909,1269.33
		c-2.086-0.462-4.231-0.699-6.403-0.699c-2.169,0-4.316,0.237-6.403,0.699c0.277,1.091,0.58,2.133,0.908,3.121
		c1.935,5.804,4.171,7.864,5.495,7.864c1.328,0,3.56-2.061,5.497-7.864C917.329,1271.463,917.633,1270.421,917.909,1269.33z"/>
	<path fill="none" stroke="#0123B4" stroke-linecap="round" stroke-linejoin="round" stroke-miterlimit="10" d="M904.224,1265.239
		c2.375-0.524,4.815-0.793,7.282-0.793c2.469,0,4.909,0.269,7.281,0.793c0.683-3.816,1.088-8.054,1.185-12.476h-16.93
		C903.14,1257.186,903.546,1261.423,904.224,1265.239z"/>
	<path fill="none" stroke="#0123B4" stroke-linecap="round" stroke-linejoin="round" stroke-miterlimit="10" d="M905.103,1232.006
		c2.086,0.464,4.233,0.703,6.403,0.703c1.795,0,3.582-0.163,5.332-0.481c-0.028-0.37-0.044-0.741-0.044-1.115
		c0-0.779,0.064-1.542,0.185-2.288c-1.925-5.743-4.137-7.799-5.473-7.799c-1.324,0-3.56,2.059-5.495,7.864
		C905.683,1229.872,905.38,1230.916,905.103,1232.006z"/>
	<path fill="none" stroke="#0123B4" stroke-linecap="round" stroke-linejoin="round" stroke-miterlimit="10" d="M921.236,1233.376
		l0.095,0.377c0.356,1.299,0.962,2.517,1.818,3.603l7.917,9.951l7.917-9.957c1.42-1.791,2.168-3.949,2.168-6.238
		c0-5.561-4.521-10.086-10.085-10.086c-5.563,0-10.088,4.523-10.088,10.086C920.979,1231.885,921.067,1232.643,921.236,1233.376z
		 M931.066,1228.322c1.541,0,2.793,1.253,2.793,2.79c0,1.537-1.252,2.79-2.793,2.79c-1.539,0-2.791-1.253-2.791-2.79
		C928.275,1229.576,929.527,1228.322,931.066,1228.322z"/>
	<path fill="none" stroke="#0123B4" stroke-linecap="round" stroke-linejoin="round" stroke-miterlimit="10" d="M926.729,1248.575
		l-2.707-3.403c0.063,1.123,0.108,2.26,0.13,3.403H926.729z"/>
	<path fill="none" stroke="#0123B4" stroke-linecap="round" stroke-linejoin="round" stroke-miterlimit="10" d="M921.496,1220.536
		c-1.581-0.524-3.218-0.925-4.897-1.197c0.873,0.937,1.752,2.192,2.596,3.864C919.851,1222.221,920.623,1221.324,921.496,1220.536z"
		/>
	<path fill="none" stroke="#0123B4" stroke-linecap="round" stroke-linejoin="round" stroke-miterlimit="10" d="M917.769,1236.313
		c-2.056,0.385-4.154,0.58-6.263,0.58c-2.467,0-4.907-0.273-7.282-0.795c-0.681,3.819-1.085,8.053-1.182,12.478h16.923
		c-0.072-3.269-0.31-6.444-0.718-9.474C918.647,1238.221,918.152,1237.285,917.769,1236.313z"/>
	<path fill="none" stroke="#0123B4" stroke-linecap="round" stroke-linejoin="round" stroke-miterlimit="10" d="M922.828,1266.395
		c4.032,1.433,7.791,3.628,11.05,6.51l0.148,0.128c5.239-5.276,8.632-12.38,9.145-20.269h-19.02
		C924.053,1257.587,923.599,1262.221,922.828,1266.395z"/>
	<path fill="none" stroke="#0123B4" stroke-linecap="round" stroke-linejoin="round" stroke-miterlimit="10" d="M920.974,1273.774
		c-1.343,4.023-2.865,6.604-4.376,8.226c5.31-0.856,10.181-3.03,14.262-6.176c-2.665-2.298-5.693-4.086-8.935-5.304
		C921.635,1271.656,921.315,1272.74,920.974,1273.774z"/>
	<path fill="none" stroke="#0123B4" stroke-linecap="round" stroke-linejoin="round" stroke-miterlimit="10" d="M943.174,1248.575
		c-0.176-2.728-0.698-5.359-1.521-7.854l-6.248,7.854H943.174z"/>
	<path fill="none" stroke="#0123B4" stroke-linecap="round" stroke-linejoin="round" stroke-miterlimit="10" d="M900.185,1234.942
		c-4.033-1.434-7.787-3.629-11.049-6.508l-0.148-0.13c-5.236,5.277-8.633,12.38-9.146,20.271h19.018
		C898.96,1243.748,899.415,1239.119,900.185,1234.942z"/>
	<path fill="none" stroke="#0123B4" stroke-linecap="round" stroke-linejoin="round" stroke-miterlimit="10" d="M902.04,1227.565
		c1.342-4.023,2.862-6.607,4.376-8.226c-5.31,0.857-10.181,3.031-14.263,6.176c2.666,2.299,5.693,4.087,8.936,5.303
		C901.378,1229.683,901.697,1228.596,902.04,1227.565z"/>
	<path fill="none" stroke="#0123B4" stroke-linecap="round" stroke-linejoin="round" stroke-miterlimit="10" d="M898.858,1252.764
		h-19.019c0.515,7.889,3.909,14.992,9.148,20.269l0.145-0.128c3.263-2.882,7.02-5.077,11.053-6.51
		C899.415,1262.221,898.96,1257.587,898.858,1252.764z"/>
	<path fill="none" stroke="#0123B4" stroke-linecap="round" stroke-linejoin="round" stroke-miterlimit="10" d="M901.087,1270.521
		c-3.242,1.218-6.27,3.003-8.934,5.304c4.082,3.146,8.95,5.319,14.261,6.176c-1.512-1.621-3.034-4.202-4.375-8.226
		C901.697,1272.74,901.378,1271.656,901.087,1270.521z"/>
</g>
</svg>
