<?xml version="1.0" encoding="iso-8859-1"?>
<!-- Generator: Adobe Illustrator 19.0.0, SVG Export Plug-In . SVG Version: 6.00 Build 0)  -->
<svg version="1.1" id="Capa_1" xmlns="http://www.w3.org/2000/svg" xmlns:xlink="http://www.w3.org/1999/xlink" x="0px" y="0px"
	 viewBox="0 0 480 480" style="enable-background:new 0 0 480 480;" xml:space="preserve">
<path style="fill:#D9D9D9;" d="M320,428v32h-32h-96h-32v-32h32v-72h96v72H320z"/>
<path style="fill:#E8EDF2;" d="M8,340V84h464v256c-0.026,8.826-7.174,15.974-16,16H24C15.174,355.974,8.026,348.826,8,340z M64,260
	c8.968,0.132,16.345-7.032,16.477-16c0.132-8.968-7.032-16.345-16-16.477s-16.345,7.032-16.477,16
	c-0.103,7.022,4.319,13.314,10.96,15.597C60.578,259.696,62.282,259.994,64,260z M64,188l80,32.72V276
	c48.857,53.019,131.444,56.394,184.463,7.537c2.614-2.409,5.128-4.923,7.537-7.537v-55.28L416,188l-176-72L64,188z"/>
<path style="fill:#085AA3;" d="M336,220.72V276c-48.857,53.019-131.444,56.394-184.463,7.537c-2.614-2.409-5.128-4.923-7.537-7.537
	v-55.28L240,260L336,220.72z"/>
<path style="fill:#0F71C7;" d="M336,220.72L240,260l-96-39.28L64,188l176-72l176,72L336,220.72z"/>
<path style="fill:#3AA2EB;" d="M472,36v48H8V36c0.026-8.826,7.174-15.974,16-16h432C464.826,20.026,471.974,27.174,472,36z"/>
<path d="M64,244v16c-1.718-0.006-3.422-0.304-5.04-0.88L64,244z"/>
<path style="fill:#085AA3;" d="M80,244c-0.031-5.685-3.077-10.926-8-13.768V188H56v42.232c-4.923,2.842-7.969,8.083-8,13.768
	c0.041,3.852,1.499,7.554,4.096,10.4l-2.576,7.712c-5.394,16.016-15.933,29.798-29.976,39.2l8.912,13.296
	C39.613,307.11,49.01,297.282,56,285.8c-0.133,12.203-5.011,23.875-13.6,32.544l11.312,11.312
	c11.685-11.785,18.256-27.7,18.288-44.296v-27.592C76.923,254.926,79.969,249.685,80,244z"/>
<g>
	<path style="fill:#E8EDF2;" d="M400,44h16v16h-16V44z"/>
	<path style="fill:#E8EDF2;" d="M432,44h16v16h-16V44z"/>
</g>
<path style="fill:#085AA3;" d="M240,326.08c-38.68-0.09-75.581-16.261-101.864-44.64c-1.373-1.479-2.136-3.422-2.136-5.44v-55.28
	l16-0.72v52.8c47.094,48.601,124.67,49.823,173.271,2.729c0.924-0.895,1.834-1.805,2.729-2.729v-52.08l16-0.72v56
	c0,2.018-0.763,3.961-2.136,5.44C315.581,309.819,278.68,325.99,240,326.08L240,326.08z"/>
<path style="fill:#0F71C7;" d="M240,268c-1.04,0.003-2.07-0.198-3.032-0.592l-176-72c-4.091-1.668-6.056-6.337-4.388-10.428
	c0.813-1.993,2.394-3.575,4.388-4.388l176-72c1.943-0.796,4.121-0.796,6.064,0l176,72c4.091,1.668,6.056,6.337,4.388,10.428
	c-0.813,1.993-2.394,3.575-4.388,4.388l-176,72C242.07,267.802,241.04,268.003,240,268z M85.136,188L240,251.36l92.968-38.048
	L394.864,188L240,124.64L85.136,188z"/>
<path d="M456,12H24C10.745,12,0,22.745,0,36v304c0,13.255,10.745,24,24,24h160v56h-24c-4.418,0-8,3.582-8,8v32c0,4.418,3.582,8,8,8
	h160c4.418,0,8-3.582,8-8v-32c0-4.418-3.582-8-8-8h-24v-56h160c13.255,0,24-10.745,24-24V36C480,22.745,469.255,12,456,12z M312,436
	v16H168v-16h24c4.418,0,8-3.582,8-8v-64h80v64c0,4.418,3.582,8,8,8H312z M464,340c0,4.418-3.582,8-8,8H24c-4.418,0-8-3.582-8-8V92
	h448V340z M464,76H16V36c0-4.418,3.582-8,8-8h432c4.418,0,8,3.582,8,8V76z"/>
<path d="M400,44h16v16h-16V44z"/>
<path d="M432,44h16v16h-16V44z"/>
<path d="M56,285.824c-0.136,12.195-5.014,23.859-13.6,32.52l11.312,11.312c11.683-11.78,18.254-27.689,18.288-44.28v-27.592
	c7.613-4.346,10.261-14.04,5.915-21.653c-1.407-2.465-3.45-4.508-5.915-5.915V199.92l64,26.184V276c0,2.014,0.76,3.954,2.128,5.432
	c51.942,56.262,139.659,59.764,195.922,7.822c2.71-2.502,5.32-5.112,7.822-7.822C343.24,279.954,344,278.014,344,276v-49.896
	l75.032-30.696c4.091-1.668,6.056-6.337,4.388-10.428c-0.813-1.993-2.394-3.575-4.388-4.388l-176-72
	c-1.943-0.796-4.121-0.796-6.064,0l-176,72c-3.007,1.231-4.97,4.159-4.968,7.408v42.216c-7.597,4.32-10.253,13.981-5.933,21.578
	c0.562,0.988,1.229,1.913,1.989,2.758l-2.52,7.552c-5.377,16.035-15.919,29.836-29.976,39.24l8.88,13.312
	C39.617,307.168,49.024,297.328,56,285.824z M328,272.8c-47.195,48.601-124.853,49.741-173.454,2.546
	c-0.861-0.836-1.71-1.685-2.546-2.546v-40.152l84.968,34.76c1.944,0.789,4.12,0.789,6.064,0L328,232.648V272.8z M240,124.64
	L394.872,188L240,251.36L85.128,188L240,124.64z"/>
<g>
</g>
<g>
</g>
<g>
</g>
<g>
</g>
<g>
</g>
<g>
</g>
<g>
</g>
<g>
</g>
<g>
</g>
<g>
</g>
<g>
</g>
<g>
</g>
<g>
</g>
<g>
</g>
<g>
</g>
</svg>
