<?xml version="1.0"?>
<svg xmlns="http://www.w3.org/2000/svg" xmlns:xlink="http://www.w3.org/1999/xlink" version="1.1" id="Capa_1" x="0px" y="0px" width="512px" height="512px" viewBox="0 0 612.024 612.024" style="enable-background:new 0 0 612.024 612.024;" xml:space="preserve" class=""><g><g>
	<g>
		<path d="M570.545,504.309H41.479C18.218,504.309,0,490.821,0,473.618V230.246c0-6.66,5.405-12.065,12.065-12.065h587.871    c6.659,0,12.064,5.405,12.064,12.065v243.372C612,490.821,593.782,504.309,570.545,504.309z M24.129,242.311v231.307    c0.242,1.496,6.105,6.539,17.35,6.539h529.066c11.245,0,17.108-5.043,17.35-6.539V242.311H24.129z M348.239,427.989h-84.454    c-3.885,0-7.528-1.883-9.796-5.043c-2.269-3.162-2.872-7.215-1.617-10.883l17.156-50.697    c-9.386-9.387-14.767-22.174-14.767-35.688c0-27.846,22.658-50.527,50.527-50.527c27.87,0,50.527,22.658,50.527,50.527    c0,12.982-4.898,25.143-13.682,34.434l17.591,51.951c1.255,3.668,0.627,7.721-1.616,10.883    C355.864,426.106,352.124,427.989,348.239,427.989z M280.604,403.858h50.793l-14.719-43.553    c-1.665-4.947,0.023-10.426,4.223-13.562c6.828-5.066,10.737-12.764,10.737-21.088c0-14.574-11.823-26.398-26.398-26.398    c-14.574,0-26.397,11.824-26.397,26.398c0,8.711,4.319,16.865,11.534,21.789c4.464,3.064,6.37,8.711,4.609,13.826L280.604,403.858    z" data-original="#000000" class="active-path" data-old_color="#337ab7" fill="#337ab7"/>
		<path d="M599.936,206.068H12.065C5.405,206.068,0,200.663,0,194.003v-55.619c0-17.181,18.218-30.669,41.479-30.669h529.066    c23.262,0,41.479,13.488,41.479,30.669v55.619C612,200.687,606.619,206.068,599.936,206.068z M24.129,181.938H587.87v-43.554    c-0.217-1.496-6.104-6.54-17.325-6.54H41.479c-11.245,0-17.108,5.043-17.35,6.54V181.938z" data-original="#000000" class="active-path" data-old_color="#337ab7" fill="#337ab7"/>
		<path d="M348.239,423.163h-84.454c-2.34,0-4.536-1.135-5.888-3.018c-1.351-1.881-1.713-4.342-0.965-6.539l18.145-53.639    c-9.796-8.615-15.515-21.09-15.515-34.312c0-25.192,20.51-45.702,45.702-45.702c25.191,0,45.702,20.51,45.702,45.702    c0,12.691-5.188,24.516-14.405,33.129l18.556,54.799c0.748,2.195,0.386,4.633-0.966,6.539    C352.751,422.028,350.556,423.163,348.239,423.163z M273.872,408.708h64.281l-16.891-49.924c-1.014-2.967,0.024-6.25,2.51-8.107    c8.083-6.008,12.692-15.105,12.692-24.975c0-17.203-13.995-31.223-31.224-31.223c-17.229,0-31.224,14.02-31.224,31.223    c0,10.328,5.091,19.955,13.609,25.771c2.678,1.834,3.812,5.236,2.775,8.301L273.872,408.708z" data-original="#000000" class="active-path" data-old_color="#337ab7" fill="#337ab7"/>
	</g>
</g><script xmlns="" class="active-path" style="fill:#337AB7" data-old_color="#337ab7"/></g> </svg>
