<?xml version="1.0"?>
<svg xmlns="http://www.w3.org/2000/svg" xmlns:xlink="http://www.w3.org/1999/xlink" version="1.1" id="Capa_1" x="0px" y="0px" viewBox="0 0 408.186 408.186" style="enable-background:new 0 0 408.186 408.186;" xml:space="preserve" width="512px" height="512px" class=""><g><path id="_x31_8-DTH" d="M350.932,121.991H194.714v-6.479c0-3.324-2.696-6.021-6.021-6.021H145.35c-3.324,0-6.021,2.696-6.021,6.021  v1.822h-18.215c-2.867,0-5.191,2.324-5.191,5.191c0,2.869,2.324,5.194,5.191,5.194h18.215v8.543h-18.215  c-2.867,0-5.191,2.325-5.191,5.194c0,2.867,2.324,5.191,5.191,5.191h18.215v1.822c0,3.324,2.697,6.02,6.021,6.02h43.344  c3.324,0,6.021-2.696,6.021-6.02v-6.48h156.218c20.542,0,37.254,16.712,37.254,37.253v18.902c0,19.807-15.54,36.046-35.066,37.184  v-20.086c0-14.663-11.887-26.549-26.549-26.549H26.551C11.887,188.695,0,200.581,0,215.244v56.902  c0,14.663,11.887,26.549,26.551,26.549H326.57c14.662,0,26.549-11.886,26.549-26.549v-16.802  c30.559-1.156,55.066-26.362,55.066-57.198v-18.902C408.186,147.674,382.501,121.991,350.932,121.991z M197.422,258.113H53.805  c-7.963,0-14.421-6.453-14.421-14.418c0-7.965,6.458-14.418,14.421-14.418h143.617c7.964,0,14.42,6.453,14.42,14.418  C211.842,251.66,205.386,258.113,197.422,258.113z M290.922,262.439c-10.352,0-18.744-8.394-18.744-18.744  c0-10.352,8.392-18.744,18.744-18.744c10.352,0,18.744,8.393,18.744,18.744C309.666,254.045,301.273,262.439,290.922,262.439z" data-original="#000000" class="active-path" data-old_color="#337ab7" fill="#337ab7"/><script xmlns="" class="active-path" style="fill:#337AB7" data-old_color="#337ab7"/></g> </svg>
