<svg xmlns="http://www.w3.org/2000/svg" xmlns:xlink="http://www.w3.org/1999/xlink" viewBox="0 0 512 512"><circle cx="256" cy="256" r="245" fill="#ff9518"/><path d="M246.506 67.62H60.643a10 10 0 0 0-9.968 9.967v49.837h195.83V67.62z" fill="#293d7c"/><path d="M80.486 67.62H60.643a10 10 0 0 0-9.968 9.967v49.837h19.843V77.587a10 10 0 0 1 9.968-9.968z" fill="#1a2b63"/><path d="M84.423 107.442c-2.217 0-4.378-.896-5.944-2.453-1.557-1.567-2.452-3.728-2.452-5.944 0-2.206.896-4.367 2.452-5.934a8.45 8.45 0 0 1 5.944-2.463c2.205 0 4.377.895 5.933 2.463a8.45 8.45 0 0 1 2.464 5.934 8.45 8.45 0 0 1-2.464 5.944c-1.556 1.557-3.728 2.453-5.933 2.453z" fill="#e26693"/><path d="M111.957 107.442c-2.206 0-4.378-.896-5.934-2.464a8.41 8.41 0 0 1-2.462-5.932c0-2.206.896-4.367 2.462-5.934a8.45 8.45 0 0 1 5.934-2.463c2.216 0 4.376.895 5.945 2.463 1.556 1.567 2.45 3.727 2.45 5.934s-.896 4.377-2.45 5.932c-1.57 1.568-3.73 2.464-5.945 2.464z" fill="#ffaf10"/><path d="M139.503 107.442c-2.217 0-4.378-.896-5.934-2.453-1.567-1.567-2.463-3.728-2.463-5.944a8.45 8.45 0 0 1 2.463-5.934c1.556-1.568 3.717-2.463 5.934-2.463 2.205 0 4.377.895 5.933 2.463a8.45 8.45 0 0 1 2.464 5.934 8.45 8.45 0 0 1-2.464 5.944 8.48 8.48 0 0 1-5.933 2.453z" fill="#37c47a"/><path d="M251.506 169.663c-2.75 0-5-2.25-5-5v-37.24H50.675V389.69a246.33 246.33 0 0 0 48.687 54.692H412.64c18.825-15.67 35.258-34.1 48.687-54.692V169.663h-209.82z" fill="#aec1ed"/><path d="M70.518 383.204v-255.78H50.675V389.69l.43.646 19.414-7.13z" fill="#85a0dd"/><path d="M251.506 169.663c-2.75 0-5-2.25-5-5V152.34H80.594c-2.75 0-5 2.25-5 5v224l43.154-15.85c.435-.16.835-.244 1.157-.244s.54.077.646.228c.16.23.215.8-.116 1.7l-19.206 52.288h330.18c2.75 0 5-2.25 5-5v-244.8H251.506z" fill="#d9eafc"/><path d="M245.506 165.663c0 2.75 2.25 5 5 5H507c2.75 0 5-2.25 5-5V30c0-2.75-2.25-5-5-5H250.506c-2.75 0-5 2.25-5 5v135.662z" fill="#ffd00d"/><path d="M265.35 165.663V30c0-2.75 2.25-5 5-5h-19.843c-2.75 0-5 2.25-5 5v135.662c0 2.75 2.25 5 5 5h19.843c-2.75 0-5-2.25-5-5z" fill="#ffaf10"/><path d="M512 30c0-2.75-2.25-5-5-5h-47.17v49.17a3 3 0 0 0 3 3H512V30z" fill="#b7092b"/><g fill="#445ea0"><path d="M405.557 205.5H232.03a7.5 7.5 0 1 1 0-15h173.527a7.5 7.5 0 1 1 0 15zm0 25.497H232.03a7.5 7.5 0 1 1 0-15h173.527a7.5 7.5 0 1 1 0 15zm-56.71 25.5H232.03a7.5 7.5 0 1 1 0-15h116.816a7.5 7.5 0 1 1 0 15zM240.47 385.978H113.53l-5.5 15h132.44a7.5 7.5 0 1 0 0-15zm0-23.998h-133.5a7.5 7.5 0 0 0-7.5 7.5 7.49 7.49 0 0 0 .574 2.879l18.702-6.87c.435-.16.835-.244 1.157-.244s.54.077.646.228c.16.23.215.8-.116 1.7l-3.6 9.804H240.47a7.5 7.5 0 0 0 7.5-7.5 7.5 7.5 0 0 0-7.5-7.499z"/><use xlink:href="#B"/><use xlink:href="#B" x="164.56" y="47.998"/><use xlink:href="#B" x="164.56" y="24"/><use xlink:href="#B" x="164.56"/></g><path d="M121.373 367.52c.948-2.582-.39-3.918-2.97-2.97L5.956 405.853c-2.58.948-3.103 3.315-1.158 5.26l21.927 21.926a5.02 5.02 0 0 1 0 7.071L1.458 465.375a5.02 5.02 0 0 0 0 7.071l12.02 12.02c1.944 1.945 5.126 1.945 7.07 0L45.816 459.2c1.944-1.945 5.126-1.945 7.07 0l21.926 21.925c1.944 1.945 4.31 1.424 5.26-1.158l41.302-112.447z" fill="#293d7c"/><path d="M15.776 422.09l98.896-36.325 6.7-18.244c.948-2.582-.39-3.918-2.97-2.97L5.956 405.853c-2.58.948-3.103 3.315-1.158 5.26l10.978 10.977z" fill="#1a2b63"/><path d="M205 262c0 2.75-2.25 5-5 5H100c-2.75 0-5-2.25-5-5v-76c0-2.75 2.25-5 5-5h100c2.75 0 5 2.25 5 5v76zm210.245 57.497c0 2.75-2.25 5-5 5h-308.5c-2.75 0-5-2.25-5-5v-35.503c0-2.75 2.25-5 5-5h308.5c2.75 0 5 2.25 5 5v35.503z" fill="#445ea0"/><path d="M114.843 262v-76c0-2.75 2.25-5 5-5H100c-2.75 0-5 2.25-5 5v76c0 2.75 2.25 5 5 5h19.843c-2.75 0-5-2.25-5-5zm1.755 57.497v-35.503c0-2.75 2.25-5 5-5h-19.843c-2.75 0-5 2.25-5 5v35.503c0 2.75 2.25 5 5 5h19.843c-2.75 0-5-2.25-5-5z" fill="#293d7c"/><path d="M363.556 143h-22a7.5 7.5 0 0 1-7.5-7.5v-69a7.5 7.5 0 0 1 7.5-7.5h22c12.406 0 22.5 10.093 22.5 22.5v39c0 12.407-10.094 22.5-22.5 22.5zm-14.5-15h14.5a7.51 7.51 0 0 0 7.5-7.5v-39a7.51 7.51 0 0 0-7.5-7.5h-14.5v54zm76.5 15h-27a7.5 7.5 0 1 1 0-15h27c1.355 0 2.5-1.145 2.5-2.5V111c0-1.355-1.145-2.5-2.5-2.5h-17c-9.65 0-17.5-7.85-17.5-17.5V76.5c0-9.65 7.85-17.5 17.5-17.5h27a7.5 7.5 0 1 1 0 15h-27c-1.355 0-2.5 1.145-2.5 2.5V91c0 1.355 1.145 2.5 2.5 2.5h17c9.65 0 17.5 7.85 17.5 17.5v14.5c0 9.65-7.85 17.5-17.5 17.5zm-119-84h-7c-12.406 0-22.5 10.093-22.5 22.5v54a7.5 7.5 0 1 0 15 0v-26.833h22V135.5a7.5 7.5 0 1 0 15 0v-54c0-12.407-10.094-22.5-22.5-22.5zm-14.5 34.667V81.5a7.51 7.51 0 0 1 7.5-7.5h7a7.51 7.51 0 0 1 7.5 7.5v12.167h-22z" fill="#1a2b63"/><path d="M496.522 51.086l6.783-6.782a7.5 7.5 0 0 0 .001-10.606c-2.93-2.93-7.678-2.93-10.607-.001l-6.785 6.784-6.784-6.784a7.5 7.5 0 0 0-10.606 10.607l6.783 6.782-6.783 6.782a7.5 7.5 0 0 0-.001 10.606c1.465 1.465 3.384 2.197 5.304 2.197s3.84-.732 5.303-2.196l6.784-6.784 6.785 6.784c1.464 1.464 3.384 2.196 5.303 2.196s3.84-.732 5.304-2.197a7.5 7.5 0 0 0-.001-10.606l-6.783-6.782z" fill="#e26693"/><defs ><path id="B" d="M240.47 352.98h-133.5a7.5 7.5 0 1 1 0-15h133.5a7.5 7.5 0 1 1 0 15z"/></defs></svg>