<svg xmlns="http://www.w3.org/2000/svg" height="655" viewBox="-14 0 491 491.553" width="655"><path d="M48.473 398.02c-75.2-92.8-60.797-228.8 32-304 79.203-64 192.8-64 272 0zm0 0" fill="#3a6289"/><path d="M226.074 219.617l-26.398-13.598v-32l8-12c4.797-7.2 7.2-16.8 5.598-25.602l-.8-10.398c-3.2-20-21.598-34.402-41.598-31.2-16 2.398-28.8 15.2-31.2 31.2l-1.602 10.398c-1.602 8.8.8 18.402 5.602 25.602l8 12v32l-62.402 31.2c-10.398 5.602-17.598 16.8-17.598 28.8v108zm0 0" fill="#efccbf"/><path d="M89.273 237.22c-10.398 5.602-17.598 16.8-17.598 28.8v108l154.398-155.2-26.398-12.8h-48zm0 0" fill="#f4c167"/><path d="M111.676 414.02c92.797 75.2 228.797 60.8 304-32 64-79.2 64-192.8 0-272zm0 0" fill="#3a6289"/><path d="M383.676 358.02v-32l12.797-19.2c2.402-3.203 3.203-7.203 2.402-11.203l-4.8-36c-.8-8-8-13.598-16-13.598h-36c-8 0-14.398 5.598-16 13.598l-4.8 36c-.8 4 0 8 2.402 11.203l12 19.2v32l-71.203 35.2c-5.598 2.398-8.797 8-8.797 14.398v54.402c40-1.602 79.2-14.402 112.797-36.8 20-13.602 36.8-29.602 51.203-48.8zm0 0" fill="#efccbf"/><path d="M383.676 358.02l-24 24-24-24-71.203 35.2c-5.598 2.398-8.797 8-8.797 14.398v54.402c40-1.602 79.2-14.402 112.797-36.8 20-13.602 36.8-29.602 51.203-48.8zm0 0" fill="#d3756e"/><g fill="#d6d7d8"><path d="M378.176 208.203l32.242-32.246 11.313 11.316-32.242 32.242zM178.133 416.238l23.758-23.758 11.316 11.313-23.758 23.762zm40.12-56.118l48.082-48.086 11.316 11.316-48.086 48.082zM370.137 72.242l23.758-23.758 11.313 11.313L381.45 83.56zm-31.922-32.078L378.38 0l11.313 11.313-40.164 40.164zM34.254 480.117l48.082-48.082 11.316 11.313-48.086 48.086zm0 0"/><path d="M90.133 480.238l23.758-23.758 11.316 11.313-23.758 23.758zm168.004-367.996l23.758-23.758 11.313 11.313-23.758 23.758zM38.52 204.422l44.125-44.12 11.313 11.313-44.125 44.125zm0 0"/></g><path d="M295.676 406.02h32v16h-32zm56 29.597c5.598-3.2 11.2-6.398 16-9.598v-52l-8 8-8-8zm0 0" fill="#f78b7c"/><path d="M393.273 259.617c-.8-8-8-13.598-16-13.598h-36c-8 0-14.398 5.598-16 13.598l-2.398 18.402h72.8zm-180.8-133.597c-3.2-20-21.598-34.402-41.598-31.2-16 2.398-28.8 15.2-31.2 31.2zm0 0" fill="#704d4d"/><path d="M183.676 262.02v-56h-16v72zm-56 56v-48h-16v64zm0 0" fill="#ddad6f"/></svg>