<svg xmlns="http://www.w3.org/2000/svg" viewBox="0 0 505 505"><circle cx="252.5" cy="252.5" r="252.5" fill="#ffd05b"/><path d="M51.1,404.7C97.2,465.6,170.3,505,252.5,505c82.3,0,155.3-39.4,201.4-100.3H51.1z" fill="#f9b54c"/><path d="M299.4 331.3h-93.8l-9.1 60.3h112z" fill="#324a5e"/><path d="M303.1 355.8l-3.7-24.5h-93.8l-3.7 24.5z" fill="#2b3b4e"/><path d="M408.3 340.5H96.7a3.37 3.37 0 0 1-3.4-3.4V103.4a3.37 3.37 0 0 1 3.4-3.4h311.5a3.37 3.37 0 0 1 3.4 3.4v233.7c.1 1.9-1.4 3.4-3.3 3.4z" fill="#324a5e"/><path d="M112 119.8h280.9v201H112z" fill="#fff"/><path d="M339.3 199.9v9.4l-5.9-7.4-60.4 48.4-75.7-46.4-42.2 59.1-43.7-34.6v23.9l39.8 31.6 5.8-7.4 7.7 5.5 37.7-52.9 72 44.1 68.2-54.5h50.5v-18.8z" fill="#acb3ba"/><path d="M129.3 134.7h27.8v27.8h-27.8z" fill="#ff7058"/><path d="M166.7 138.3h83v6.8h-83zm0 13.8h111.4v6.8H166.7zm92.1-13.8H312v6.8h-53.2z" fill="#e6e9ee"/><circle cx="339.3" cy="209.3" r="24.1" fill="#ff7058"/><circle cx="339.3" cy="209.3" r="9.3" fill="#fff"/><circle cx="273.7" cy="261.8" r="24.1" fill="#4cdbc4"/><circle cx="273.7" cy="261.8" r="9.3" fill="#fff"/><circle cx="199.9" cy="216.5" r="24.1" fill="#ffd05b"/><circle cx="199.9" cy="216.5" r="9.3" fill="#fff"/><circle cx="157" cy="276.5" r="24.1" fill="#54c0eb"/><circle cx="157" cy="276.5" r="9.3" fill="#fff"/><path d="M325.4,405H179.6v-20.1c0-2.7,2.2-4.9,4.9-4.9h136c2.7,0,4.9,2.2,4.9,4.9V405z" fill="#2b3b4e"/></svg>