<svg xmlns="http://www.w3.org/2000/svg" viewBox="0 0 512 512"><circle cx="245" cy="262.5" r="245" fill="#91e0e8"/><path d="M57 159.83H22.503C8.068 191.06 0 225.836 0 262.5c0 4.353.118 8.68.342 12.978H57V159.83z" fill="#445ea0"/><path d="M415.377 338.75H393.88v80.873h21.496c5.5 0 10-4.5 10-10V348.75c0-5.5-4.5-10-10-10z" fill="#293d7c"/><path d="M281.707 335v88.393l82.733 49.363v-187.12z" fill="#eef6ff"/><path d="M394.88 488.565c0 2.75-2.25 5-5 5h-21.44c-2.75 0-5-2.25-5-5V269.807c0-2.75 2.25-5 5-5h21.44c2.75 0 5 2.25 5 5v218.758z" fill="#fe3745"/><path d="M380.616 488.565V269.807c0-2.75 2.25-5 5-5H368.44c-2.75 0-5 2.25-5 5v218.76c0 2.75 2.25 5 5 5h17.176a5.02 5.02 0 0 1-5-5.001z" fill="#b7092b"/><path d="M190.918 342.15h-23.18c-2.75 0-5 2.25-5 5v64.068c0 2.75 2.25 5 5 5h23.18V342.15z" fill="#eef6ff"/><path d="M177.247 411.22v-64.068c0-2.75 2.25-5 5-5h-14.5c-2.75 0-5 2.25-5 5v64.068c0 2.75 2.25 5 5 5h14.5c-2.75 0-5-2.25-5-5z" fill="#d9eafc"/><path d="M282.707 423.863c0 2.75-2.25 5-5 5h-82.79c-2.75 0-5-2.25-5-5v-89.357c0-2.75 2.25-5 5-5h82.79c2.75 0 5 2.25 5 5v89.357z" fill="#fe3745"/><path d="M209.76 423.863v-89.357c0-2.75 2.25-5 5-5h-19.843c-2.75 0-5 2.25-5 5v89.357c0 2.75 2.25 5 5 5h19.843c-2.75 0-5-2.25-5-5z" fill="#b7092b"/><path d="M484.526 85.14c0-2.75-2.25-5-5-5h-136.45c-2.75 0-5 2.25-5 5v94.956c0 2.75 2.25 5 5 5h41.19c2.75 0 6.347 1.802 7.994 4.005l16.048 21.468c1.646 2.203 4.342 2.203 5.988 0l16.048-21.468c1.647-2.203 5.244-4.005 7.994-4.005h41.19c2.75 0 5-2.25 5-5l.001-94.956z" fill="#52bbef"/><path d="M357.918 180.097V85.14c0-2.75 2.25-5 5-5h-19.843c-2.75 0-5 2.25-5 5v94.956c0 2.75 2.25 5 5 5h19.843c-2.75 0-5-2.25-5-5z" fill="#1e99d6"/><path d="M454.143 117.24H368.46a7.5 7.5 0 1 1 0-15h85.684a7.5 7.5 0 1 1 0 15zm0 23.252H368.46a7.5 7.5 0 0 1 0-15h85.684a7.5 7.5 0 0 1 0 15zm-42.67 23.25H368.46a7.5 7.5 0 1 1 0-15h43.013a7.5 7.5 0 1 1 0 15z" fill="#fff"/><circle cx="268.01" cy="60.11" r="55.606" fill="#fe3745"/><path d="M232.243 60.106c0-27.322 19.71-50.025 45.685-54.706-3.222-.58-6.533-.9-9.922-.9-30.7 0-55.605 24.896-55.605 55.606s24.895 55.605 55.605 55.605c3.39 0 6.7-.32 9.922-.9-25.974-4.68-45.685-27.383-45.685-54.705z" fill="#b7092b"/><path d="M267.907 90.716c-.902 0-1.75-.354-2.392-.998L239.248 63.23a16.89 16.89 0 0 1-4.912-11.973c0-4.524 1.744-8.777 4.912-11.97 3.17-3.2 7.388-4.96 11.873-4.96a16.61 16.61 0 0 1 11.873 4.959l5.01 5.05 5.013-5.05c3.17-3.2 7.385-4.96 11.87-4.96s8.702 1.76 11.874 4.96 4.916 7.45 4.916 11.97-1.745 8.772-4.918 11.973l-26.472 26.496a3.34 3.34 0 0 1-2.38.99z" fill="#fff"/><path d="M77.172 368.426a2.83 2.83 0 0 1-2.019-.843L52.98 345.226c-2.674-2.697-4.146-6.286-4.146-10.106s1.473-7.408 4.146-10.105 6.235-4.185 10.02-4.185a14.02 14.02 0 0 1 10.022 4.185l4.228 4.264 4.23-4.264c2.675-2.7 6.233-4.185 10.02-4.185s7.345 1.485 10.022 4.185 4.15 6.288 4.15 10.105-1.473 7.405-4.15 10.106L79.18 367.59c-.535.538-1.25.835-2.008.835z" fill="#fe3745"/><path d="M64.158 340.56c-2.674-2.697-4.147-6.286-4.147-10.107 0-3.585 1.313-6.958 3.684-9.6-.23-.012-.46-.034-.692-.034a14.01 14.01 0 0 0-10.021 4.185c-2.674 2.696-4.146 6.286-4.146 10.105a14.26 14.26 0 0 0 4.146 10.106l22.172 22.357a2.83 2.83 0 0 0 2.019.843 2.82 2.82 0 0 0 2.009-.835l5.914-5.92-20.938-21.1z" fill="#b7092b"/><path d="M186.172 282.236v-13.803a14.02 14.02 0 0 1 14-14h3.236a1 1 0 1 0 0-2 14.02 14.02 0 0 1-14-14V224.63a14.02 14.02 0 0 1 14-14 1 1 0 1 0 0-2 14.02 14.02 0 0 1-14-14v-13.805a14.02 14.02 0 0 1 14-14 1 1 0 1 0 0-2h-6.18a14.02 14.02 0 0 1-14-14V137.02c0-6.858 4.96-12.568 11.48-13.76V69.52c0-8.25-6.75-15-15-15h-23.33c-8.25 0-15.91 6.688-17.026 14.862l-9.398 68.958c-1.11 8.143-6.992 14.808-13.09 14.857V283.2h69.358c-.02-.32-.048-.638-.048-.965z" fill="#ffe2b8"/><path d="M179.71 54.52h-23.33c-8.25 0-15.91 6.688-17.026 14.862l-9.398 68.958c-1.11 8.143-6.992 14.808-13.09 14.857v19.85l19.773-.001c6.123 0 12.045-6.688 13.16-14.862l9.398-68.958c1.115-8.174 8.776-14.862 17.026-14.862l18.488-.001V69.52c.001-8.25-6.75-15-15-15z" fill="#ffc987"/><path d="M200.172 297.236c-8.25 0-15-6.75-15-15v-13.803c0-8.25 6.75-15 15-15h81.35c8.25 0 15 6.75 15 15v13.803c0 8.25-6.75 15-15 15h-81.35z" fill="#ffe2b8"/><path d="M61 299.478c-2.75 0-5-2.25-5-5V140.83c0-2.75 2.25-5 5-5h51.862c2.75 0 5 2.25 5 5v153.647c0 2.75-2.25 5-5 5L61 299.478z" fill="#293d7c"/><path d="M75.843 294.478V140.83c0-2.75 2.25-5 5-5H61c-2.75 0-5 2.25-5 5v153.647c0 2.75 2.25 5 5 5h19.843c-2.75.001-5-2.25-5-5z" fill="#1a2b63"/><circle cx="86.93" cy="160.32" r="13.386" fill="#aec1ed"/><g fill="#ffe2b8"><path d="M197.23 165.826c-8.25 0-15-6.75-15-15V137.02c0-8.25 6.75-15 15-15h84.292c8.25 0 15 6.75 15 15v13.805c0 8.25-6.75 15-15 15H197.23z"/><path d="M203.408 209.63c-8.25 0-15-6.75-15-15v-13.805c0-8.25 6.75-15 15-15h81.765c8.25 0 15 6.75 15 15v13.805c0 8.25-6.75 15-15 15h-81.765z"/><path d="M203.408 253.434c-8.25 0-15-6.75-15-15V224.63c0-8.25 6.75-15 15-15h81.765c8.25 0 15 6.75 15 15v13.803c0 8.25-6.75 15-15 15h-81.765z"/></g><g fill="#ffc987"><path d="M215.613 281.795c-8.25 0-15-6.75-15-15v-13.36h-.44c-8.25 0-15 6.75-15 15v13.803c0 8.25 6.75 15 15 15h81.35c8.25 0 15-6.75 15-15v-.44h-80.9zm-2.943-131.4c-8.25 0-15-6.75-15-15v-13.363h-.44c-8.25 0-15 6.75-15 15v13.805c0 8.25 6.75 15 15 15h84.292c8.25 0 15-6.75 15-15v-.44h-83.85v-.001zm6.18 43.805c-8.25 0-15-6.75-15-15v-13.363h-.44c-8.25 0-15 6.75-15 15v13.805c0 8.25 6.75 15 15 15h81.765c8.25 0 15-6.75 15-15v-.44l-81.324-.001z"/><path d="M218.85 237.992c-8.25 0-15-6.75-15-15v-13.36h-.44c-8.25 0-15 6.75-15 15v13.803c0 8.25 6.75 15 15 15h81.765c8.25 0 15-6.75 15-15v-.44H218.85v-.001z"/></g><path d="M121.984 389.646H32.527a2 2 0 0 0-1.988 1.997v57.4a2 2 0 0 0 1.988 1.997h89.457a2 2 0 0 0 1.988-1.997v-57.4c.001-1.1-.894-1.997-1.988-1.997z" fill="#ffaf10"/><path d="M50.382 449.043v-43.72L31.02 390.36a2 2 0 0 1 .3-.289c-.47.366-.78.932-.78 1.572v57.4a2 2 0 0 0 1.988 1.997H52.37c-1.094.001-1.988-.897-1.988-1.996z" fill="#ef9614"/><path d="M121.984 389.646H32.527c-.605 0-1.144.28-1.51.714l44.662 34.518c.867.67 2.285.67 3.15 0l44.66-34.518c-.364-.433-.902-.714-1.508-.714z" fill="#ffd00d"/><path d="M510.012 232.153h-89.457a2 2 0 0 0-1.988 1.997v57.4a2 2 0 0 0 1.988 1.997h89.457A2 2 0 0 0 512 291.55v-57.4a2 2 0 0 0-1.988-1.997z" fill="#ffaf10"/><path d="M438.41 291.55v-43.72l-19.363-14.965a2 2 0 0 1 .3-.289c-.47.366-.78.932-.78 1.572v57.4a2 2 0 0 0 1.988 1.997h19.843a2 2 0 0 1-1.989-1.996z" fill="#ef9614"/><path d="M510.012 232.153h-89.457c-.605 0-1.144.28-1.51.714l44.662 34.518c.867.67 2.285.67 3.15 0l44.66-34.518c-.365-.432-.903-.714-1.508-.714z" fill="#ffd00d"/></svg>