<svg xmlns="http://www.w3.org/2000/svg" viewBox="0 0 512 512"><path d="M375.655 479.92c-5.766 0-11.373-3-14.468-8.34a16.7 16.7 0 0 1 6.093-22.812c54.713-31.648 93.473-84.906 106.344-146.116.01-.055.023-.11.036-.163 3.285-14.884 4.95-30.524 4.95-46.5 0-11.346-.84-22.528-2.507-33.39H289.39v66.783h96.4c5.506 0 10.66 2.715 13.772 7.257s3.787 10.326 1.8 15.46c-12.763 33.003-36.712 60.986-67.432 78.795-7.977 4.625-18.192 1.907-22.817-6.07s-1.907-18.193 6.07-22.817c16.727-9.697 30.9-23.224 41.368-39.234h-85.848A16.7 16.7 0 0 1 256 306.086V205.913a16.7 16.7 0 0 1 16.696-16.696h217.266c7.835 0 14.614 5.447 16.303 13.097C510.07 219.557 512 237.62 512 256c0 18.35-1.923 36.383-5.715 53.597-14.834 70.44-59.402 131.7-122.285 168.075-2.632 1.522-5.508 2.247-8.345 2.247z" fill="#3199ff"/><path d="M388.626 473.692l.335-.402.666-.976.246-.362.773-1.413.632-1.475.437-1.367.05-.158.34-1.56c.622-3.7.01-7.623-2.014-11.12-.003-.006-.008-.01-.01-.018l-50.088-86.757c-.2-.344-.423-.666-.642-1-.095-.14-.178-.3-.277-.426-.242-.335-.504-.646-.767-.957-.096-.115-.183-.24-.282-.35-.284-.32-.587-.616-.9-.91-.1-.087-.174-.185-.265-.27-.324-.298-.664-.573-1.008-.843-.083-.066-.16-.14-.245-.204-.348-.263-.71-.5-1.076-.733-.09-.057-.173-.124-.263-.178-.354-.217-.72-.407-1.09-.597-.1-.057-.214-.124-.325-.177-.35-.17-.713-.315-1.074-.46-.135-.055-.266-.12-.402-.17-.33-.124-.67-.22-1.007-.322-.175-.053-.345-.12-.52-.166-.297-.08-.6-.132-.9-.196-.224-.047-.443-.107-.67-.144-.257-.043-.52-.06-.778-.092-.273-.032-.544-.077-.82-.096-.22-.016-.44-.008-.662-.014-.317-.01-.632-.028-.95-.02-.188.006-.376.03-.564.042-.35.02-.702.037-1.053.08-.163.02-.323.06-.484.085-.376.058-.752.113-1.125.198-.15.035-.296.086-.445.125-.383.098-.766.195-1.145.322-.166.056-.327.13-.493.193-.357.132-.716.26-1.067.42-.196.088-.386.2-.58.297-.31.154-.62.298-.925.473-.016.01-.02.012-.024.015-18.528 10.74-39.68 16.417-61.173 16.417-43.48 0-84.103-23.475-106.013-61.264a16.7 16.7 0 0 0-22.817-6.069c-7.977 4.625-10.694 14.84-6.07 22.817 27.862 48.056 79.553 77.907 134.9 77.907 21.75 0 43.23-4.587 62.988-13.335l33.524 58.063c-30.01 14.454-63.046 22.055-96.512 22.055-79.122 0-152.99-42.663-192.776-111.34-4.62-7.978-14.836-10.7-22.816-6.076a16.7 16.7 0 0 0-6.076 22.816c22.125 38.19 53.918 70.23 91.94 92.654C165.47 499.78 210.328 512 256 512c44.915 0 89.176-11.87 128-34.327.286-.166.55-.354.824-.533.2-.13.412-.253.604-.392.26-.188.5-.396.746-.597.186-.15.384-.293.563-.452.254-.225.483-.47.72-.707.15-.15.314-.294.46-.45.25-.272.478-.562.7-.85z" fill="#29cc5e"/><path d="M149.377 334.865l.405-.597.432-.788.34-.624.63-1.476c.104-.277.18-.56.27-.843l.217-.683.193-.884.147-.68.188-1.595.02-.89.014-.72-.067-.894-.056-.72-.16-.912-.122-.696c-.07-.312-.17-.62-.26-.928l-.186-.662c-.1-.303-.23-.6-.35-.898l-.26-.664-.773-1.51-.016-.027c-10.74-18.53-16.42-39.682-16.42-61.173 0-21.64 5.753-42.923 16.64-61.546a16.7 16.7 0 0 0-5.988-22.84c-7.96-4.653-18.185-1.97-22.84 5.988-13.87 23.73-21.202 50.84-21.202 78.397a155.65 155.65 0 0 0 13.339 62.987l-58.075 33.53C40.99 322.547 33.39 289.51 33.39 256c0-38.9 10.216-77.202 29.54-110.765a16.7 16.7 0 0 0-6.137-22.8 16.7 16.7 0 0 0-22.8 6.137C11.756 167.196 0 211.26 0 256c0 44.965 11.866 89.218 34.315 127.98.012.02.014.025.018.03.072.125.152.242.227.363.125.203.246.408.378.604.072.108.152.21.228.315.144.204.286.4.437.604.07.1.146.173.217.262.164.203.327.406.5.6.082.092.17.178.255.268.168.18.335.363.5.535.08.08.17.154.253.232.185.174.367.348.56.513.07.06.145.115.216.174.21.174.42.348.637.51.062.047.127.088.2.134.23.168.462.335.7.49.06.04.125.075.187.113.243.155.488.307.737.447.077.043.156.08.233.12a17.71 17.71 0 0 0 .722.377c.097.047.198.086.296.13.228.105.455.2.687.304.1.045.224.08.334.124.224.086.447.173.675.248.1.03.184.053.275.08a16.69 16.69 0 0 0 .754.224c.115.03.23.05.345.08.233.056.465.115.7.16.14.028.284.046.425.07.21.036.423.076.636.103.166.02.332.032.5.048.19.02.382.043.573.056.358.023.718.034 1.08.034.355 0 .7-.01 1.065-.034.118-.008.236-.025.353-.035.237-.02.474-.038.71-.07.194-.024.386-.062.58-.094.16-.027.322-.047.482-.078.2-.04.4-.09.6-.138.15-.036.304-.065.455-.105.195-.05.387-.116.58-.174.155-.047.312-.088.465-.14.17-.057.337-.126.505-.19.177-.066.354-.126.53-.198.138-.057.274-.125.41-.185.203-.1.407-.176.608-.275.12-.06.24-.13.36-.193.21-.11.42-.215.626-.334l86.766-50.094c.015-.01.02-.013.027-.016.26-.15.5-.324.748-.486.224-.146.457-.282.672-.436.236-.17.45-.36.676-.54.2-.17.432-.33.633-.51.215-.2.407-.398.61-.6.19-.186.388-.364.568-.56.2-.216.376-.45.563-.673.16-.194.332-.38.483-.58.176-.232.334-.486.5-.734z" fill="#ffd500"/><path d="M436.862 75.108C388.304 26.674 324.074 0 256 0c-45.8 0-90.748 12.278-130.017 35.507a257.84 257.84 0 0 0-91.519 92.281c-.046.077-.1.146-.145.224-.024.042-.04.086-.066.128l-.258.432a16.7 16.7 0 0 0 6.137 22.8 16.69 16.69 0 0 0 4.184 1.69l82.88 47.85c2.63 1.518 5.5 2.24 8.332 2.24 5.77 0 11.383-2.994 14.474-8.35.028-.048.047-.097.075-.145.04-.07.087-.134.128-.203 21.953-37.557 62.49-60.89 105.794-60.89 32.474 0 63.195 12.78 86.502 35.985 6.525 6.496 17.075 6.485 23.584-.026l70.8-70.8a16.7 16.7 0 0 0-.014-23.626zm-83.215 59.634c-27.726-22.397-61.834-34.568-97.647-34.568-49.725 0-96.565 24.152-125.756 63.942L72.175 130.6C113.493 70.245 182.422 33.39 256 33.39c53.61 0 104.5 19.055 145.016 53.98l-47.37 47.37z" fill="#ff4b26"/></svg>