<svg xmlns="http://www.w3.org/2000/svg" xmlns:xlink="http://www.w3.org/1999/xlink" width="512" height="512"><path d="M437 381H74c-8.284 0-15-6.716-15-15V146c0-8.284 6.716-15 15-15h363c8.284 0 15 6.716 15 15v220c0 8.284-6.716 15-15 15z" fill="#e8f6fc"/><path d="M437 131H256v250h181c8.284 0 15-6.716 15-15V146c0-8.284-6.716-15-15-15z" fill="#cee2e9"/><path d="M497 147c-8.284 0-15-6.716-15-15V84h-47.996c-8.284 0-15-6.716-15-15s6.716-15 15-15H497c8.284 0 15 6.716 15 15v63c0 8.284-6.716 15-15 15z" fill="#a50043"/><path d="M77.996 458H15c-8.284 0-15-6.716-15-15v-63c0-8.284 6.716-15 15-15s15 6.716 15 15v48h47.996c8.284 0 15 6.716 15 15s-6.716 15-15 15z" fill="#f90053"/><path d="M497 458h-62.996c-8.284 0-15-6.716-15-15s6.716-15 15-15H482v-48c0-8.284 6.716-15 15-15s15 6.716 15 15v63c0 8.284-6.716 15-15 15z" fill="#a50043"/><g fill="#212cbb"><use xlink:href="#B"/><use xlink:href="#B" x="60"/><use xlink:href="#B" x="120"/></g><path d="M15.004 147c-8.284 0-15-6.716-15-15V69c0-8.284 6.716-15 15-15H78c8.284 0 15 6.716 15 15s-6.716 15-15 15H30.004v48c0 8.284-6.716 15-15 15z" fill="#f90053"/><path d="M119 131v190.14c0 8.284 6.716 15 15 15s15-6.716 15-15V131h-30zm60 0v136c0 8.284 6.716 15 15 15s15-6.716 15-15V131h-30zm60 0v136c0 8.284 6.716 15 15 15s15-6.716 15-15V131h-30zm90 0h-30v136c0 8.284 6.716 15 15 15s15-6.716 15-15V131zm60.002 0h-30L359 321.14c0 8.284 6.716 15 15 15s15-6.716 15-15V131z" fill="#212cbb"/><path d="M481.5 256h-451c-8.284 0-15-6.716-15-15s6.716-15 15-15h451c8.284 0 15 6.716 15 15s-6.716 15-15 15z" fill="#f90053"/><g fill="#00215a"><use xlink:href="#B" x="120"/><path d="M329 131h-30v136c0 8.284 6.716 15 15 15s15-6.716 15-15V131zm60.002 0h-30L359 321.14c0 8.284 6.716 15 15 15s15-6.716 15-15V131zM256 131v150.852c7.337-.98 13-7.247 13-14.852V131h-13zm0 172.1v33.753c7.337-.98 13-7.247 13-14.852v-4.05c0-7.604-5.664-13.872-13-14.85z"/></g><path d="M481.5 226H256v30h225.5c8.284 0 15-6.716 15-15s-6.716-15-15-15z" fill="#a50043"/><defs ><path id="B" d="M194 337c-8.284 0-15-6.716-15-15v-4.05c0-8.284 6.716-15 15-15s15 6.716 15 15V322c0 8.284-6.716 15-15 15z"/></defs></svg>