<svg xmlns="http://www.w3.org/2000/svg" height="683" viewBox="-17 0 512 512" width="683"><path d="M130.773 439.348c0 32.102-26.02 58.12-58.12 58.12s-58.12-26.02-58.12-58.12 26.02-58.12 58.12-58.12 58.12 26.02 58.12 58.12zm0 0" fill="#ff6d00"/><path d="M72.652 381.227c-9.102 0-17.715 2.098-25.387 5.824 19.38 9.426 32.738 29.3 32.738 52.297s-13.36 42.867-32.738 52.293c7.672 3.73 16.285 5.828 25.387 5.828 32.102 0 58.12-26.023 58.12-58.125s-26.02-58.117-58.12-58.117zm0 0" fill="#ff592a"/><path d="M72.652 399.758c21.828 0 39.6 17.762 39.6 39.6s-17.762 39.6-39.6 39.6-39.6-17.762-39.6-39.6 17.762-39.6 39.6-39.6m0-33.062C32.527 366.695 0 399.223 0 439.348S32.527 512 72.652 512s72.652-32.527 72.652-72.652-32.527-72.652-72.652-72.652zm332.868 33.062c21.828 0 39.6 17.762 39.6 39.6s-17.758 39.6-39.6 39.6-39.586-17.762-39.586-39.6 17.758-39.6 39.586-39.6m0-33.062c-40.125 0-72.652 32.527-72.652 72.652S365.395 512 405.52 512s72.652-32.527 72.652-72.652-32.527-72.652-72.652-72.652zm0 0" fill="#727070"/><path d="M102.87 373.28c13.523 13.195 21.93 31.605 21.93 51.992 0 40.125-32.527 72.652-72.652 72.652-10.8 0-21.016-2.367-30.22-6.586C35.023 504.117 52.914 512 72.652 512c40.125 0 72.652-32.527 72.652-72.652 0-29.34-17.398-54.598-42.434-66.066zm332.872 0c13.52 13.195 21.926 31.605 21.926 51.992 0 24.074-11.715 45.402-29.746 58.62a72.31 72.31 0 0 1-40.56 12.367 72.3 72.3 0 0 1-37.84-10.625 70.11 70.11 0 0 0 2.438 2.79c.207.23.426.445.637.672.637.676 1.28 1.348 1.945 2C367.656 504.02 385.656 512 405.52 512c40.125 0 72.652-32.527 72.652-72.652 0-29.34-17.398-54.598-42.43-66.066zm0 0" fill="#545353"/><path d="M417.793 437.973l-18.7 4.234c-7.586 1.72-15.105-3.133-16.664-10.754L301.03 79.512c-1.93-8.53 3.418-17.016 11.95-18.945l14.89-3.375c8.53-1.934 17.012 3.418 18.945 11.95l81.512 352.508c1.516 7.402-3.164 14.652-10.535 16.324zm0 0" fill="#4694f2"/><path d="M428.328 421.648L346.816 69.14c-1.934-8.53-10.414-13.883-18.945-11.95l-14.89 3.375c-.676.152-1.32.36-1.953.6 2.195 2.082 3.824 4.813 4.543 7.984l81.512 352.508c1.516 7.398-3.168 14.652-10.53 16.32l-.668.152c3.254 3.484 8.215 5.22 13.215 4.086l18.7-4.238a13.88 13.88 0 0 0 10.531-16.32zm0 0" fill="#257edf"/><path d="M389.215 26.926l-61.652 61.648c-5.37 5.375-14.086 5.375-19.457 0l-3.437-3.434a13.77 13.77 0 0 1 0-19.461L366.32 4.03c5.37-5.375 14.086-5.375 19.46 0l3.434 3.434a13.77 13.77 0 0 1 0 19.461zm0 0" fill="#727070"/><path d="M388.918 7.168l-2.844-2.84c-5.535-5.54-14.512-5.54-20.05 0l-1.254 1.254 2 1.996a14.18 14.18 0 0 1 0 20.055l-59.805 59.805.844.84c5.535 5.54 14.512 5.54 20.05 0l61.06-61.06c5.535-5.535 5.535-14.512 0-20.05zm0 0" fill="#545353"/><path d="M289.867 463.887H80.703c-13.934 0-25.738-10.926-26.094-24.855-.37-14.406 11.195-26.203 25.52-26.203h175.69c1.945 0 3.64-1.36 4.027-3.266 13.328-65.45 71.164-114.902 140.406-115.262 13.973-.074 26.102 11.203 26.29 25.176.19 14.258-11.312 25.88-25.527 25.88-51.28 0-93.004 41.72-93.004 93v7.383c.004 10.023-8.12 18.148-18.145 18.148zm0 0" fill="#4694f2"/><path d="M405.66 294.8l.043.914c.31 14.355-11.238 26.1-25.523 26.1-51.28 0-93 41.72-93 93.004v7.38c0 10.023-8.125 18.148-18.148 18.148H59.902a26.54 26.54 0 0 1-5.254-.527c.766 13.582 12.422 24.078 26.1 24.078h209.13c10.023 0 18.148-8.125 18.148-18.148v-7.383c0-51.28 41.72-93 93-93 14.29 0 25.832-11.734 25.523-26.1-.262-12.18-9.3-22.168-20.88-24.465zm0 0" fill="#257edf"/></svg>