<svg xmlns="http://www.w3.org/2000/svg" height="683" viewBox="0 0 512 512" width="683"><path d="M176 400h160v96H176zm0 0" fill="#d7e1f2"/><path d="M512 368H0V96c0-17.68 14.32-32 32-32h448c17.68 0 32 14.32 32 32zm0 0" fill="#80deea"/><path d="M512 192H352V32c0-17.68 14.32-32 32-32h96c17.68 0 32 14.32 32 32zm0 0" fill="#48c8ef"/><path d="M352 176v48c0 17.68 14.32 32 32 32h96c17.68 0 32-14.32 32-32v-48zm0 0" fill="#e4edfb"/><g fill="#fff"><path d="M310.625 208H160a16.01 16.01 0 0 1-16-16 16.01 16.01 0 0 1 16-16h73.375l-20.687-20.687 22.625-22.625zM148.688 315.313L73.375 240H224a16.01 16.01 0 0 1 16 16 16.01 16.01 0 0 1-16 16h-73.375l20.688 20.688zm0 0"/><path d="M80 176h32v32H80zm192 64h32v32h-32zm0 0"/></g><path d="M368 512H144a16.01 16.01 0 0 1-16-16 16.01 16.01 0 0 1 16-16h224a16.01 16.01 0 0 1 16 16 16.01 16.01 0 0 1-16 16zm112-80H32c-17.68 0-32-14.32-32-32v-48h512v48c0 17.68-14.32 32-32 32zm0 0" fill="#e4edfb"/></svg>