<svg xmlns="http://www.w3.org/2000/svg" viewBox="0 0 480 480"><linearGradient id="A" gradientUnits="userSpaceOnUse" x1="240" y1="-7.608" x2="240" y2="520.392"><stop offset="0" stop-color="#006df0"/><stop offset="1" stop-color="#00e7f0"/></linearGradient><path d="M368 416H264v16h104v8c0 13.255-10.745 24-24 24H136c-13.255 0-24-10.745-24-24v-8h104v-16H112v-32H96v56c.026 22.08 17.92 39.974 40 40h208c22.08-.026 39.974-17.92 40-40V304h-16v112z" fill="url(#A)"/><linearGradient id="B" gradientUnits="userSpaceOnUse" x1="240" y1="-7.608" x2="240" y2="520.2"><stop offset="0" stop-color="#006df0"/><stop offset="1" stop-color="#00e7f0"/></linearGradient><path d="M112 64h256v32h16V40c-.026-22.08-17.92-39.974-40-40H136c-22.08.026-39.974 17.92-40 40v135.936h16V64zm24-48h208c13.255 0 24 10.745 24 24v8H112v-8c0-13.255 10.745-24 24-24z" fill="url(#B)"/><path d="M232,416h16v16h-16V416z" fill="url(#A)"/><path d="M232,24h16v16h-16V24z" fill="url(#A)"/><linearGradient id="C" gradientUnits="userSpaceOnUse" x1="240" y1="-7.608" x2="240" y2="520.4"><stop offset="0" stop-color="#006df0"/><stop offset="1" stop-color="#00e7f0"/></linearGradient><path d="M416 104H176c-13.255 0-24 10.745-24 24v56H64c-13.255 0-24 10.745-24 24v144c0 13.255 10.745 24 24 24h240c13.255 0 24-10.745 24-24v-56h88c13.255 0 24-10.745 24-24V128c0-13.255-10.745-24-24-24zM312 352a8 8 0 0 1-8 8H64a8 8 0 0 1-8-8V208a8 8 0 0 1 8-8h240a8 8 0 0 1 8 8v144zm112-80a8 8 0 0 1-8 8h-88v-72c0-13.255-10.745-24-24-24H168v-16h256v104zM168 136v-8a8 8 0 0 1 8-8h240a8 8 0 0 1 8 8v8H168z" fill="url(#C)"/><linearGradient id="D" gradientUnits="userSpaceOnUse" x1="256" y1="-7.608" x2="256" y2="520.397"><stop offset="0" stop-color="#006df0"/><stop offset="1" stop-color="#00e7f0"/></linearGradient><path d="M272 296a23.85 23.85 0 0 0-16 6.24c-9.81-8.915-24.987-8.19-33.903 1.617s-8.19 24.987 1.617 33.903c9.154 8.32 23.132 8.32 32.285 0 9.81 8.915 24.987 8.2 33.903-1.618s8.2-24.987-1.618-33.903A24 24 0 0 0 272 296zm-32 32a8 8 0 1 1 0-16 8 8 0 1 1 0 16zm32 0a8 8 0 1 1 0-16 8 8 0 1 1 0 16z" fill="url(#D)"/><linearGradient id="E" gradientUnits="userSpaceOnUse" x1="96" y1="-7.608" x2="96" y2="520.392"><stop offset="0" stop-color="#006df0"/><stop offset="1" stop-color="#00e7f0"/></linearGradient><path d="M80,232h32v16H80V232z" fill="url(#E)"/><linearGradient id="F" gradientUnits="userSpaceOnUse" x1="144" y1="-7.608" x2="144" y2="520.392"><stop offset="0" stop-color="#006df0"/><stop offset="1" stop-color="#00e7f0"/></linearGradient><path d="M128,232h32v16h-32V232z" fill="url(#F)"/><linearGradient id="G" gradientUnits="userSpaceOnUse" x1="192" y1="-7.608" x2="192" y2="520.392"><stop offset="0" stop-color="#006df0"/><stop offset="1" stop-color="#00e7f0"/></linearGradient><path d="M176,232h32v16h-32V232z" fill="url(#G)"/><path d="M224,232h32v16h-32V232z" fill="url(#A)"/><linearGradient id="H" gradientUnits="userSpaceOnUse" x1="136" y1="-7.608" x2="136" y2="520.392"><stop offset="0" stop-color="#006df0"/><stop offset="1" stop-color="#00e7f0"/></linearGradient><path d="M88,312h96v16H88V312z" fill="url(#H)"/></svg>