<svg xmlns="http://www.w3.org/2000/svg" viewBox="0 0 59 59"><path d="M45.07 59a1 1 0 1 1 0-2H47c.553 0 1.035.447 1.035 1s-.412 1-.965 1v-1l-.03 1h-1.97zm-4 0h-2a1 1 0 1 1 0-2h2a1 1 0 1 1 0 2zm-6 0h-2a1 1 0 1 1 0-2h2a1 1 0 1 1 0 2zm-6 0h-2a1 1 0 1 1 0-2h2a1 1 0 1 1 0 2zm-6 0h-2a1 1 0 1 1 0-2h2a1 1 0 1 1 0 2zm-6 0h-2a1 1 0 1 1 0-2h2a1 1 0 1 1 0 2zm33.467-1.718c-.216 0-.434-.07-.617-.214a1 1 0 0 1-.168-1.404 3.47 3.47 0 0 0 .663-1.392 1 1 0 0 1 1.195-.756 1 1 0 0 1 .756 1.195c-.178.792-.538 1.55-1.042 2.188-.197.252-.5.383-.787.383zm.001-5.563c-.297 0-.6-.13-.787-.382a3.53 3.53 0 0 0-1.197-.974 1 1 0 1 1 .891-1.791c.727.36 1.376.9 1.88 1.528a1 1 0 0 1-.786 1.619zM45.07 50h-2a1 1 0 1 1 0-2h2a1 1 0 1 1 0 2zm-6 0h-2a1 1 0 1 1 0-2h2a1 1 0 1 1 0 2zm-5.942-.406a.99.99 0 0 1-.415-.091c-.736-.336-1.402-.844-1.927-1.467a1 1 0 1 1 1.531-1.287 3.55 3.55 0 0 0 1.228.936 1 1 0 0 1-.417 1.909zm-2.55-4.944a1.01 1.01 0 0 1-.189-.018 1 1 0 0 1-.794-1.171c.155-.81.483-1.556.973-2.222a1 1 0 0 1 1.611 1.185c-.313.424-.52.9-.62 1.413a1 1 0 0 1-.982.813zm4.204-3.645a1 1 0 0 1-.04-1.999L35 39h1.785a1 1 0 1 1 0 2l-1.96.004-.042.001zM53 41h-.215a1 1 0 1 1 0-2H53a3.47 3.47 0 0 0 1.352-.271 1 1 0 1 1 .774 1.844A5.47 5.47 0 0 1 53 41zm-4.215 0h-2a1 1 0 1 1 0-2h2a1 1 0 1 1 0 2zm-6 0h-2a1 1 0 1 1 0-2h2a1 1 0 1 1 0 2zm14.533-3.23a1.01 1.01 0 0 1-.281-.04 1 1 0 0 1-.679-1.241 3.5 3.5 0 0 0 .142-.988c.002-.192-.014-.374-.042-.552a1 1 0 1 1 1.975-.317c.047.293.07.588.067.876 0 .52-.074 1.04-.222 1.543a1 1 0 0 1-.96.719zm-2.068-5.166c-.17 0-.343-.043-.5-.135a3.44 3.44 0 0 0-1.47-.458 1 1 0 0 1-.919-1.075c.043-.552.526-.96 1.075-.92a5.42 5.42 0 0 1 2.317.722 1 1 0 0 1 .363 1.367c-.184.32-.52.498-.865.498zM49.357 32h-2a1 1 0 1 1 0-2h2a1 1 0 1 1 0 2zm-6 0h-2a1 1 0 1 1 0-2h2a1 1 0 1 1 0 2zm-6 0h-2a1 1 0 1 1 0-2h2a1 1 0 1 1 0 2zm-6 0H31a5.52 5.52 0 0 1-1.963-.361 1 1 0 0 1-.578-1.291c.198-.517.78-.773 1.29-.578.398.152.82.23 1.252.23h.355a1 1 0 1 1 0 2zm-4.633-3.095a1 1 0 0 1-.95-.688c-.182-.552-.273-1.13-.273-1.718a5.81 5.81 0 0 1 .044-.694c.068-.546.552-.93 1.117-.867a1 1 0 0 1 .867 1.117c-.02.147-.027.298-.028.45 0 .37.06.737.174 1.088a1 1 0 0 1-.638 1.263.98.98 0 0 1-.313.05zm1.904-5.23a1 1 0 0 1-.531-1.849c.7-.437 1.472-.703 2.294-.794a1 1 0 0 1 .219 1.989 3.45 3.45 0 0 0-1.454.503 1 1 0 0 1-.528.151zM42.5 23h-2a1 1 0 1 1 0-2h2a1 1 0 1 1 0 2zm-6 0h-2a1 1 0 1 1 0-2h2a1 1 0 1 1 0 2z" fill="#ed8a19"/><path d="M53.47 2.67c-3.157-3.56-8.276-3.56-11.433 0s-3.157 9.328 0 12.887L47.753 22l5.716-6.444c3.158-3.558 3.158-9.328.001-12.887zM48 13a4.5 4.5 0 1 1 0-9 4.5 4.5 0 1 1 0 9z" fill="#26b99a"/><path d="M19.278 28.64c-4.296-4.853-11.26-4.853-15.556 0s-4.296 12.72 0 17.573L11.5 55l7.778-8.787c4.296-4.853 4.296-12.72 0-17.573zM11.5 41a5 5 0 1 1 0-10 5 5 0 1 1 0 10z" fill="#3083c9"/></svg>