<svg xmlns="http://www.w3.org/2000/svg" height="650" viewBox="-29 0 487 487.718" width="650"><path d="M308.95 398.578l70.2-33.156c15.477-7.816 34.363-2.086 42.89 13.008l-142.69 92.3a98.04 98.04 0 0 1-61.219 6.93l-98.4-27.62c-9.06-2.54-18.746-1.48-27.04 2.96l-20.582 11.012 2.77-100.37.82.02c29.4-20.895 68.03-23.598 100.063-7l5.89 3.05c9.207 4.77 19.38 7.398 29.75 7.68l57.848 1.598c18.156.496 34.047 12.336 39.71 29.6zm0 0" fill="#f7caa5"/><path d="M328.21 222.5c0 59.652-48.36 108.012-108.012 108.012S112.188 282.152 112.188 222.5s48.36-108.012 108.012-108.012S328.21 162.848 328.21 222.5zm0 0" fill="#fedb41"/><path d="M72.098 464.012l-.31 11.297-63.43-1.738 3.828-139.21 63.44 1.742-.762 27.54zm0 0" fill="#00efd1"/><g fill="#083863"><path d="M220.863 266.176c-.895-.195-1.816-.23-2.727-.102-9.187-1.004-16.133-8.785-16.098-18.027a8 8 0 1 0-16 0 34.02 34.02 0 0 0 25.16 32.961V289a8 8 0 1 0 16 0v-7.516c17.133-3.586 28.78-19.547 26.977-36.957a34.17 34.17 0 0 0-33.977-30.648c-10.03 0-18.16-8.13-18.16-18.16s8.13-18.16 18.16-18.16 18.16 8.133 18.16 18.16a8 8 0 1 0 16 0 34.22 34.22 0 0 0-27.16-33.434V155a8 8 0 1 0-16 0v7.773c-16.508 4.504-27.133 20.53-24.86 37.488s16.75 29.62 33.86 29.617c9.953-.078 18.117 7.87 18.297 17.82a18.16 18.16 0 0 1-17.633 18.48zM104.188 222.5c0 64.07 51.94 116.012 116.012 116.012s116-51.942 116-116.012-51.94-116.012-116-116.012c-64.04.074-115.937 51.973-116.012 116.012zM220.2 122.488c55.234 0 100.012 44.777 100.012 100.012S275.434 322.512 220.2 322.512 120.188 277.734 120.188 222.5c.063-55.207 44.805-99.95 100.012-100.012zm0 0"/><path d="M375.645 358.227l-62.652 29.594c-8.68-16.074-25.273-26.297-43.53-26.828l-57.855-1.598a61.14 61.14 0 0 1-26.289-6.789l-5.887-3.047c-30.14-15.715-66.062-15.676-96.172.098l.367-13.34a8 8 0 0 0-7.777-8.215L12.4 326.36a8 8 0 0 0-5.719 2.184 7.99 7.99 0 0 0-2.496 5.594l-3.832 139.2a8 8 0 0 0 7.777 8.215l63.652 1.742a8 8 0 0 0 7.992-7.78l.184-6.652 16.488-8.824c6.465-3.477 14.03-4.305 21.098-2.3l98.414 27.617a7.1 7.1 0 0 0 .516.129c7.117 1.488 14.37 2.238 21.64 2.234 15.387.008 30.594-3.3 44.574-9.73a8.37 8.37 0 0 0 .992-.547l142.7-92.3a8 8 0 0 0 2.621-10.652c-10.594-18.797-34.086-25.953-53.36-16.262zM64.2 463.8l-.14 3.3-47.457-1.3 3.375-123.215 47.488 1.3zm211.293-.1a90.63 90.63 0 0 1-55.465 6.184l-98.148-27.547c-11.043-3.117-22.867-1.824-32.973 3.6l-8.43 4.512 2.262-81.93c26.684-17.75 60.914-19.574 89.332-4.762l5.9 3.047c10.285 5.313 21.637 8.246 33.207 8.574l57.852 1.602a35.1 35.1 0 0 1 32.332 24.098 35.36 35.36 0 0 1 1.027 3.855l-86.18-2.38c-4.418-.12-8.094 3.36-8.22 7.777s3.363 8.094 7.777 8.22l95.1 2.617h.223a8 8 0 0 0 8-7.781c.094-3.477-.168-6.953-.777-10.38l64.277-30.367a1.32 1.32 0 0 0 .188-.1c9.117-4.613 20.14-3.07 27.64 3.87zM228.2 84V8a8 8 0 1 0-16 0v76a8 8 0 1 0 16 0zm0 0"/><path d="M288.2 84V48a8 8 0 1 0-16 0v36a8 8 0 1 0 16 0zm-120 0V48a8 8 0 1 0-16 0v36a8 8 0 1 0 16 0zm0 0"/></g></svg>