<svg xmlns="http://www.w3.org/2000/svg" height="609" viewBox="0 -8 456 456" width="609"><path d="M228 156H36c-17.672 0-32 14.328-32 32v160c0 17.672 14.328 32 32 32h16v56h32v-56h144c17.672 0 32-14.328 32-32V188c0-17.672-14.328-32-32-32zm0 0" fill="#99a2b9"/><path d="M84 440H52c-2.207 0-4-1.793-4-4v-52H36c-19.848 0-36-16.152-36-36V188c0-19.848 16.152-36 36-36h192c19.848 0 36 16.152 36 36v160c0 19.848-16.152 36-36 36H88v52c0 2.207-1.793 4-4 4zm-28-8h24v-52c0-2.207 1.793-4 4-4h144c15.44 0 28-12.56 28-28V188c0-15.44-12.56-28-28-28H36c-15.44 0-28 12.56-28 28v160c0 15.44 12.56 28 28 28h16c2.207 0 4 1.793 4 4zm0 0" fill="#212a41"/><path d="M260 156H68c-17.672 0-32 14.328-32 32v160c0 17.672 14.328 32 32 32h16v56l80-56h96c17.672 0 32-14.328 32-32V188c0-17.672-14.328-32-32-32zm0 0" fill="#b7c0d7"/><path d="M84 440a3.98 3.98 0 0 1-1.848-.457A3.99 3.99 0 0 1 80 436v-52H68c-19.848 0-36-16.152-36-36V188c0-19.848 16.152-36 36-36h192c19.848 0 36 16.152 36 36v160c0 19.848-16.152 36-36 36h-94.734l-78.97 55.28c-.687.48-1.488.72-2.297.72zM68 160c-15.44 0-28 12.56-28 28v160c0 15.44 12.56 28 28 28h16c2.207 0 4 1.793 4 4v48.32l73.703-51.594a4.01 4.01 0 0 1 2.297-.719h96c15.44 0 28-12.56 28-28V188c0-15.44-12.56-28-28-28zm0 0" fill="#212a41"/><path d="M220 220h-44v-20c0-6.633-5.367-12-12-12s-12 5.367-12 12v20h-44c-6.633 0-12 5.367-12 12s5.367 12 12 12h8v18.87a43.91 43.91 0 0 0 19.594 36.609l6.773 4.512-21.023 14.016a12.01 12.01 0 0 0-3.328 16.641c2.313 3.48 6.12 5.352 9.992 5.352 2.29 0 4.602-.656 6.648-2.016L164 318.426l29.344 19.56c2.047 1.36 4.36 2.016 6.648 2.016 3.88 0 7.68-1.87 10-5.344a12.01 12.01 0 0 0-3.328-16.641L185.633 304l6.773-4.512C204.672 291.313 212 277.625 212 262.87V244h8c6.633 0 12-5.367 12-12s-5.367-12-12-12zm-32 42.87a19.96 19.96 0 0 1-8.902 16.641L164 289.574l-15.098-10.062A19.95 19.95 0 0 1 140 262.871V244h48zm0 0" fill="#e0e0e0"/><path d="M199.992 344c-3.16 0-6.223-.93-8.863-2.687L164 323.23l-27.13 18.082c-7.13 4.742-17.465 2.648-22.184-4.44-2.367-3.56-3.215-7.824-2.375-12.008a15.84 15.84 0 0 1 6.816-10.176L135.16 304l-1.785-1.184C119.992 293.895 112 278.97 112 262.88V248h-4a16.02 16.02 0 0 1-16-16 16.02 16.02 0 0 1 16-16h40v-16a16.02 16.02 0 0 1 16-16 16.02 16.02 0 0 1 16 16v16h40a16.02 16.02 0 0 1 16 16 16.02 16.02 0 0 1-16 16h-4v14.87c0 16.1-7.992 31.016-21.375 39.938L192.84 304l16.03 10.688a15.9 15.9 0 0 1 6.816 10.176c.84 4.184 0 8.457-2.375 12.008a15.98 15.98 0 0 1-13.32 7.129zM164 314.426c.777 0 1.543.223 2.215.672l29.344 19.56c3.586 2.383 8.738 1.32 11.098-2.215a8.01 8.01 0 0 0-2.215-11.098l-21.027-14.016a4.01 4.01 0 0 1-1.781-3.328 3.99 3.99 0 0 1 1.781-3.328l6.777-4.512c11.152-7.434 17.816-19.87 17.816-33.28V244c0-2.207 1.793-4 4-4h8a8.02 8.02 0 0 0 8-8 8.02 8.02 0 0 0-8-8h-44c-2.207 0-4-1.793-4-4v-20a8.02 8.02 0 0 0-8-8 8.02 8.02 0 0 0-8 8v20c0 2.207-1.793 4-4 4H108a8.02 8.02 0 0 0-8 8 8.02 8.02 0 0 0 8 8h8c2.207 0 4 1.793 4 4v18.87c0 13.4 6.664 25.848 17.816 33.28l6.777 4.512a4.01 4.01 0 0 1 1.781 3.328c0 1.336-.664 2.582-1.78 3.328l-21.027 14.016a8.01 8.01 0 0 0-2.215 11.098c2.36 3.535 7.527 4.598 11.098 2.215l29.344-19.56c.664-.44 1.43-.664 2.207-.664zm0-20.852c-.777 0-1.543-.223-2.215-.672l-15.098-10.062C140 278.383 136 270.922 136 262.87V244c0-2.207 1.793-4 4-4h48c2.207 0 4 1.793 4 4v18.87a23.97 23.97 0 0 1-10.687 19.969l-15.098 10.063c-.672.45-1.437.672-2.215.672zM144 248v14.87a15.97 15.97 0 0 0 7.129 13.313L164 284.77l12.87-8.586A15.97 15.97 0 0 0 184 262.871V248zm0 0" fill="#212a41"/><path d="M52 352c-2.207 0-4-1.793-4-4V188c0-2.207 1.793-4 4-4s4 1.793 4 4v160c0 2.207-1.793 4-4 4zm0 0" fill="#d5def5"/><path d="M276 352c-2.207 0-4-1.793-4-4V188c0-2.207 1.793-4 4-4s4 1.793 4 4v160c0 2.207-1.793 4-4 4zm0 0" fill="#99a2b9"/><path d="M196 4h192c17.672 0 32 14.328 32 32v160c0 17.672-14.328 32-32 32h-64l80 56h-32l-80-56h-96c-17.672 0-32-14.328-32-32V36c0-17.672 14.328-32 32-32zm0 0" fill="#005b8a"/><path d="M404 288h-32a4.07 4.07 0 0 1-2.297-.719L290.734 232H196c-19.848 0-36-16.152-36-36V36c0-19.848 16.152-36 36-36h192c19.848 0 36 16.152 36 36v160c0 19.848-16.152 36-36 36h-51.312l69.602 48.72a4 4 0 0 1 1.52 4.48c-.52 1.664-2.066 2.8-3.81 2.8zm-30.734-8h18.047l-69.602-48.72a4 4 0 0 1-1.52-4.48c.527-1.664 2.074-2.8 3.816-2.8h64c15.44 0 28-12.56 28-28V36c0-15.44-12.56-28-28-28H196c-15.44 0-28 12.56-28 28v160c0 15.44 12.56 28 28 28h96a4.07 4.07 0 0 1 2.297.719zm0 0" fill="#212a41"/><path d="M228 4h192c17.672 0 32 14.328 32 32v160c0 17.672-14.328 32-32 32h-16v56l-80-56h-96c-17.672 0-32-14.328-32-32V36c0-17.672 14.328-32 32-32zm0 0" fill="#0079a8"/><path d="M404 288c-.81 0-1.61-.238-2.297-.72L322.734 232H228c-19.848 0-36-16.152-36-36V36c0-19.848 16.152-36 36-36h192c19.848 0 36 16.152 36 36v160c0 19.848-16.152 36-36 36h-12v52a3.99 3.99 0 0 1-2.152 3.543A3.98 3.98 0 0 1 404 288zM228 8c-15.44 0-28 12.56-28 28v160c0 15.44 12.56 28 28 28h96a4.07 4.07 0 0 1 2.297.719L400 276.32V228c0-2.207 1.793-4 4-4h16c15.44 0 28-12.56 28-28V36c0-15.44-12.56-28-28-28zm0 0" fill="#212a41"/><path d="M212 200c-2.207 0-4-1.793-4-4V36c0-2.207 1.793-4 4-4s4 1.793 4 4v160c0 2.207-1.793 4-4 4zm0 0" fill="#1e97c6"/><path d="M436 200c-2.207 0-4-1.793-4-4V36c0-2.207 1.793-4 4-4s4 1.793 4 4v160c0 2.207-1.793 4-4 4zm0 0" fill="#005b8a"/><path d="M399.03 167.273l-48-112A11.99 11.99 0 0 0 340 48h-32a11.99 11.99 0 0 0-11.031 7.273l-48 112c-2.61 6.086.207 13.14 6.305 15.758 6.078 2.61 13.14-.207 15.758-6.305L285.055 144h77.89l14.023 32.727C378.922 181.28 383.352 184 388 184a11.88 11.88 0 0 0 4.719-.977 11.99 11.99 0 0 0 6.313-15.75zM295.344 120L315.9 72h16.168l20.57 48zm0 0" fill="#e0e0e0"/><path d="M259.992 188.008a15.9 15.9 0 0 1-6.297-1.305c-8.11-3.48-11.88-12.902-8.406-21.008l48-112A16 16 0 0 1 308 44h32a15.98 15.98 0 0 1 14.703 9.695l48 112c3.48 8.105-.297 17.527-8.398 21.008-7.914 3.395-17.625-.504-21.008-8.398L360.305 148h-72.61l-12.992 30.305a15.87 15.87 0 0 1-8.773 8.551c-1.922.77-3.93 1.152-5.937 1.152zM308 52c-3.207 0-6.098 1.902-7.352 4.848l-48 112a8.01 8.01 0 0 0 4.207 10.504c1.96.84 4.13.855 6.12.074 1.984-.8 3.543-2.312 4.383-4.28l14.023-32.73c.625-1.46 2.074-2.414 3.672-2.414h77.883a3.99 3.99 0 0 1 3.672 2.426l14.023 32.727c1.688 3.945 6.535 5.9 10.504 4.2 4.055-1.734 5.94-6.457 4.207-10.504l-48-112C346.098 53.902 343.207 52 340 52zm44.656 72h-57.312c-1.344 0-2.602-.672-3.336-1.8s-.863-2.543-.336-3.773l20.566-48A3.99 3.99 0 0 1 315.91 68h16.168a3.99 3.99 0 0 1 3.676 2.426l20.566 48c.527 1.23.398 2.652-.336 3.773-.727 1.13-1.984 1.8-3.328 1.8zm-51.25-8h45.18L329.44 76h-10.898zm0 0" fill="#212a41"/></svg>